<svg width="20" height="20" viewBox="0 0 20 20" fill="none" xmlns="http://www.w3.org/2000/svg">
<path fill-rule="evenodd" clip-rule="evenodd" d="M9.99996 15C10.46 15 10.8333 15.3733 10.8333 15.8333C10.8333 16.2933 10.46 16.6667 9.99996 16.6667C9.53996 16.6667 9.16663 16.2933 9.16663 15.8333C9.16663 15.3733 9.53996 15 9.99996 15Z" stroke="#3A3A40" stroke-width="1.25" stroke-linecap="round" stroke-linejoin="round"/>
<path fill-rule="evenodd" clip-rule="evenodd" d="M9.99996 3.3335C10.46 3.3335 10.8333 3.70683 10.8333 4.16683C10.8333 4.62683 10.46 5.00016 9.99996 5.00016C9.53996 5.00016 9.16663 4.62683 9.16663 4.16683C9.16663 3.70683 9.53996 3.3335 9.99996 3.3335Z" stroke="#3A3A40" stroke-width="1.25" stroke-linecap="round" stroke-linejoin="round"/>
<path fill-rule="evenodd" clip-rule="evenodd" d="M9.99996 9.1665C10.46 9.1665 10.8333 9.53984 10.8333 9.99984C10.8333 10.4598 10.46 10.8332 9.99996 10.8332C9.53996 10.8332 9.16663 10.4598 9.16663 9.99984C9.16663 9.53984 9.53996 9.1665 9.99996 9.1665Z" stroke="#3A3A40" stroke-width="1.25" stroke-linecap="round" stroke-linejoin="round"/>
</svg>
