<svg width="28" height="28" viewBox="0 0 28 28" fill="none" xmlns="http://www.w3.org/2000/svg">
<path d="M16.3333 10.85V14.2333H19.3667C19.6 14.2333 19.7167 14.4667 19.7167 14.7L19.25 16.9167C19.25 17.0333 19.0167 17.15 18.9 17.15H16.3333V25.6667H12.8333V17.2667H10.85C10.6167 17.2667 10.5 17.15 10.5 16.9167V14.7C10.5 14.4667 10.6167 14.35 10.85 14.35H12.8333V10.5C12.8333 8.51667 14.35 7 16.3333 7H19.4833C19.7167 7 19.8333 7.11667 19.8333 7.35V10.15C19.8333 10.3833 19.7167 10.5 19.4833 10.5H16.6833C16.45 10.5 16.3333 10.6167 16.3333 10.85Z" stroke="white" stroke-width="1.5" stroke-miterlimit="10" stroke-linecap="round"/>
<path d="M17.5003 25.6668H10.5003C4.66695 25.6668 2.33362 23.3335 2.33362 17.5002V10.5002C2.33362 4.66683 4.66695 2.3335 10.5003 2.3335H17.5003C23.3336 2.3335 25.667 4.66683 25.667 10.5002V17.5002C25.667 23.3335 23.3336 25.6668 17.5003 25.6668Z" stroke="white" stroke-width="1.5" stroke-linecap="round" stroke-linejoin="round"/>
</svg>
