<svg width="20" height="20" viewBox="0 0 20 20" fill="none" xmlns="http://www.w3.org/2000/svg">
<path d="M7.76669 11.0669H10.3417V17.0669C10.3417 17.9502 11.4417 18.3669 12.025 17.7002L18.3334 10.5336C18.8834 9.90855 18.4417 8.93355 17.6084 8.93355H15.0334V2.93355C15.0334 2.05022 13.9333 1.63355 13.35 2.30022L7.0417 9.46688C6.50003 10.0919 6.94169 11.0669 7.76669 11.0669Z" stroke="url(#paint0_linear_194_2366)" stroke-width="1.5" stroke-miterlimit="10" stroke-linecap="round" stroke-linejoin="round"/>
<path d="M7.08333 3.33301H1.25" stroke="url(#paint1_linear_194_2366)" stroke-width="1.5" stroke-miterlimit="10" stroke-linecap="round" stroke-linejoin="round"/>
<path d="M6.25 16.667H1.25" stroke="url(#paint2_linear_194_2366)" stroke-width="1.5" stroke-miterlimit="10" stroke-linecap="round" stroke-linejoin="round"/>
<path d="M3.75 10H1.25" stroke="url(#paint3_linear_194_2366)" stroke-width="1.5" stroke-miterlimit="10" stroke-linecap="round" stroke-linejoin="round"/>
<defs>
<linearGradient id="paint0_linear_194_2366" x1="12.6902" y1="1.97168" x2="12.6902" y2="18.0288" gradientUnits="userSpaceOnUse">
<stop stop-color="#1A82FF"/>
<stop offset="1" stop-color="#DF1AFF"/>
</linearGradient>
<linearGradient id="paint1_linear_194_2366" x1="4.16667" y1="3.33301" x2="4.16667" y2="4.33301" gradientUnits="userSpaceOnUse">
<stop stop-color="#1A82FF"/>
<stop offset="1" stop-color="#DF1AFF"/>
</linearGradient>
<linearGradient id="paint2_linear_194_2366" x1="3.75" y1="16.667" x2="3.75" y2="17.667" gradientUnits="userSpaceOnUse">
<stop stop-color="#1A82FF"/>
<stop offset="1" stop-color="#DF1AFF"/>
</linearGradient>
<linearGradient id="paint3_linear_194_2366" x1="2.5" y1="10" x2="2.5" y2="11" gradientUnits="userSpaceOnUse">
<stop stop-color="#1A82FF"/>
<stop offset="1" stop-color="#DF1AFF"/>
</linearGradient>
</defs>
</svg>
