<svg width="28" height="28" viewBox="0 0 28 28" fill="none" xmlns="http://www.w3.org/2000/svg">
<path d="M25.2002 11.9002H14.2336V16.2168H20.6502C20.5336 17.2668 19.8336 18.9002 18.3169 19.9502C17.3836 20.6502 15.9836 21.1168 14.2336 21.1168C11.2002 21.1168 8.51689 19.1335 7.58356 16.2168C7.35023 15.5168 7.23356 14.7002 7.23356 13.8835C7.23356 13.0668 7.35023 12.2502 7.58356 11.5502C7.70023 11.3168 7.70023 11.0835 7.81689 10.9668C8.86689 8.51683 11.3169 6.76683 14.2336 6.76683C16.4502 6.76683 17.8502 7.70016 18.7836 8.51683L22.0502 5.25016C20.0669 3.50016 17.3836 2.3335 14.2336 2.3335C9.68356 2.3335 5.71689 4.90016 3.85023 8.75016C3.03356 10.3835 2.56689 12.1335 2.56689 14.0002C2.56689 15.8668 3.03356 17.6168 3.85023 19.2502C5.71689 23.1002 9.68356 25.6668 14.2336 25.6668C17.3836 25.6668 20.0669 24.6168 21.9336 22.8668C24.1502 20.8835 25.4336 17.8502 25.4336 14.2335C25.4336 13.3002 25.3169 12.6002 25.2002 11.9002Z" stroke="white" stroke-width="1.5" stroke-miterlimit="10" stroke-linecap="round" stroke-linejoin="round"/>
</svg>
