<svg width="30" height="30" viewBox="0 0 30 30" fill="none" xmlns="http://www.w3.org/2000/svg">
<path opacity="0.1" fill-rule="evenodd" clip-rule="evenodd" d="M0 15C0 6.71573 6.71573 0 15 0C23.2843 0 30 6.71573 30 15C30 23.2843 23.2843 30 15 30C6.71573 30 0 23.2843 0 15Z" fill="#1A82FF"/>
<path fill-rule="evenodd" clip-rule="evenodd" d="M15.0007 7C12.8281 7 12.5554 7.0095 11.702 7.04833C10.8504 7.08733 10.269 7.22217 9.76036 7.42C9.23419 7.62434 8.78785 7.89768 8.34318 8.34251C7.89818 8.78719 7.62484 9.23352 7.41984 9.75953C7.2215 10.2684 7.0865 10.8499 7.04817 11.7012C7.01 12.5546 7 12.8274 7 15.0001C7 17.1728 7.00967 17.4446 7.04833 18.298C7.0875 19.1496 7.22234 19.731 7.42 20.2396C7.62451 20.7658 7.89784 21.2121 8.34268 21.6568C8.78719 22.1018 9.23352 22.3758 9.75936 22.5802C10.2684 22.778 10.8499 22.9128 11.7014 22.9518C12.5547 22.9907 12.8272 23.0002 14.9998 23.0002C17.1726 23.0002 17.4444 22.9907 18.2978 22.9518C19.1495 22.9128 19.7315 22.778 20.2405 22.5802C20.7665 22.3758 21.2121 22.1018 21.6567 21.6568C22.1017 21.2121 22.375 20.7658 22.58 20.2398C22.7767 19.731 22.9117 19.1495 22.9517 18.2981C22.99 17.4448 23 17.1728 23 15.0001C23 12.8274 22.99 12.5547 22.9517 11.7014C22.9117 10.8497 22.7767 10.2684 22.58 9.7597C22.375 9.23352 22.1017 8.78719 21.6567 8.34251C21.2116 7.89751 20.7666 7.62417 20.24 7.42C19.73 7.22217 19.1483 7.08733 18.2966 7.04833C17.4433 7.0095 17.1716 7 14.9982 7H15.0007ZM14.283 8.44166C14.496 8.44133 14.7337 8.44166 15.0007 8.44166C17.1367 8.44166 17.3899 8.44933 18.2334 8.48766C19.0134 8.52333 19.4368 8.65366 19.7188 8.76316C20.0921 8.90816 20.3583 9.0815 20.6381 9.3615C20.9181 9.64151 21.0914 9.90817 21.2368 10.2815C21.3463 10.5632 21.4768 10.9865 21.5123 11.7665C21.5506 12.6099 21.5589 12.8632 21.5589 14.9982C21.5589 17.1333 21.5506 17.3866 21.5123 18.2299C21.4766 19.0099 21.3463 19.4333 21.2368 19.7149C21.0918 20.0883 20.9181 20.3541 20.6381 20.634C20.3581 20.914 20.0923 21.0873 19.7188 21.2323C19.4371 21.3423 19.0134 21.4723 18.2334 21.508C17.3901 21.5463 17.1367 21.5546 15.0007 21.5546C12.8645 21.5546 12.6114 21.5463 11.768 21.508C10.988 21.472 10.5647 21.3416 10.2825 21.2321C9.90916 21.0871 9.64249 20.9138 9.36249 20.6338C9.08249 20.3538 8.90915 20.0878 8.76382 19.7143C8.65432 19.4326 8.52381 19.0093 8.48831 18.2293C8.44998 17.3859 8.44231 17.1326 8.44231 14.9962C8.44231 12.8599 8.44998 12.6079 8.48831 11.7645C8.52398 10.9845 8.65432 10.5612 8.76382 10.2792C8.90882 9.90584 9.08249 9.63917 9.36249 9.35917C9.64249 9.07917 9.90916 8.90583 10.2825 8.7605C10.5645 8.65049 10.988 8.52049 11.768 8.48466C12.506 8.45133 12.792 8.44133 14.283 8.43966V8.44166ZM19.2711 9.77001C18.7411 9.77001 18.3111 10.1995 18.3111 10.7297C18.3111 11.2597 18.7411 11.6897 19.2711 11.6897C19.8011 11.6897 20.2311 11.2597 20.2311 10.7297C20.2311 10.1997 19.8011 9.77001 19.2711 9.77001ZM15.0008 10.8917C12.7319 10.8917 10.8924 12.7312 10.8924 15.0001C10.8924 17.2689 12.7319 19.1076 15.0008 19.1076C17.2696 19.1076 19.1085 17.2689 19.1085 15.0001C19.1085 12.7312 17.2696 10.8917 15.0008 10.8917ZM15.0007 12.3334C16.4734 12.3334 17.6674 13.5272 17.6674 15.0001C17.6674 16.4727 16.4734 17.6668 15.0007 17.6668C13.5279 17.6668 12.334 16.4727 12.334 15.0001C12.334 13.5272 13.5279 12.3334 15.0007 12.3334Z" fill="#1A82FF"/>
</svg>
