<svg width="115" height="109" viewBox="0 0 115 109" fill="none" xmlns="http://www.w3.org/2000/svg">
<path d="M73.6602 46.5774C72.3832 35.391 69.6505 24.3977 65.25 13.9083C63.8052 10.4637 62.2489 5.47948 58.4988 3.50852C58.4899 3.44625 58.4938 3.38488 58.482 3.32168C58.4553 3.18339 58.404 3.05608 58.3626 2.9242C58.3172 2.65859 58.2461 2.39666 58.1316 2.14479C57.5464 0.861654 56.2941 0.18482 55.0131 0.180241C54.0933 -0.224575 52.9841 0.102397 52.2025 0.666575C50.96 1.56321 50.2632 3.05058 50.2218 4.52056C43.6166 9.36828 41.6419 17.624 41.0053 25.1625C40.9412 25.9208 40.9047 26.6847 40.8543 27.4458C40.2898 31.9958 40.1754 36.5734 40.2316 40.8487C40.4092 54.3349 42.0406 67.8147 44.2739 81.1287C44.2758 81.1397 44.2837 81.1434 44.2857 81.1535C44.4811 82.7004 45.0229 84.283 45.4206 85.7209C45.5292 86.1587 45.6367 86.5974 45.7532 87.0334C46.1312 88.6618 46.521 90.5357 47.269 92.045C48.474 95.6078 50.0284 98.9983 52.3742 102.01C53.3976 103.731 54.5542 105.368 55.8914 106.838C59.1086 110.376 63.2387 108.784 66.3454 105.901C72.999 99.7255 73.1904 89.2589 73.8862 81.1397C74.8731 69.6419 74.9708 58.0579 73.6602 46.5774ZM72.9033 70.4332C72.7355 75.378 72.3773 80.3173 71.8641 85.241C71.4249 89.4531 70.966 93.7183 69.537 97.7592C68.2777 101.318 65.3556 106.656 60.8505 107.409C57.0727 108.041 54.7565 102.356 53.4805 100.727C46.9532 89.1884 45.4887 75.7938 43.9551 63.0961C42.8981 54.3486 42.3593 45.5544 42.4393 36.752C42.4758 32.6809 42.3603 27.5877 43.0116 22.522C43.2929 21.2865 43.6146 20.0574 43.9877 18.8384C45.2913 14.5723 47.1378 9.57985 50.5366 6.28087C51.3172 8.14284 53.5387 8.77021 55.5292 8.00454C57.0135 7.43395 58.1306 6.24882 58.4504 4.8457C58.5935 4.9437 58.7405 5.02612 58.8807 5.14061C60.9758 6.85421 62.0535 9.60274 63.0956 11.9281C67.1507 20.9742 69.7216 30.5799 71.2354 40.2643C72.7996 50.2464 73.2447 60.3568 72.9033 70.4332Z" fill="black" fill-opacity="0.07"/>
<path d="M97.8712 19.0251C97.1567 17.2153 95.7011 16.1621 93.9711 15.6199C93.9296 15.3982 93.7727 15.1995 93.451 15.1299C84.2967 13.158 75.8598 18.0488 69.1639 23.3599C68.5402 23.8545 67.9332 24.3701 67.3174 24.8757C63.4518 27.7231 59.8832 30.8847 56.665 33.9447C46.515 43.597 37.3982 54.2001 28.833 65.0798C28.8261 65.0889 28.8281 65.0962 28.8232 65.1054C27.783 66.3272 26.9599 67.8017 26.1448 69.0803C25.8882 69.4613 25.6296 69.8414 25.3799 70.227C24.4069 71.6264 23.2542 73.2072 22.6335 74.766C20.7712 78.0769 19.2869 81.4931 18.6514 85.1621C18.0642 87.0506 17.6339 88.9685 17.4592 90.8845C17.0388 95.4977 21.1709 97.0822 25.5655 97.0822C28.0159 97.0822 30.3765 96.5803 32.6483 95.7569C33.276 96.5537 34.1425 97.1802 35.1599 97.4595C38.1966 98.2911 40.7723 95.6717 40.6016 92.969C40.5759 92.5559 40.4822 92.1356 40.3401 91.7207C43.7399 89.4456 46.886 86.7997 49.7648 84.5219C59.223 77.0374 68.1178 68.9109 75.9388 59.9325C83.5595 51.185 90.0028 41.6178 94.8829 31.3134C96.5557 27.7808 99.4325 22.9807 97.8712 19.0251ZM94.8701 28.4998C90.8446 37.5578 85.3438 46.0369 79.0356 53.8786C72.5341 61.9621 65.1453 69.4027 57.2266 76.3038C53.3402 79.6898 49.3246 82.9475 45.2093 86.0926C43.3658 87.5012 41.5056 88.9135 39.5663 90.2186C38.4995 88.723 36.7241 87.6771 34.7474 88.1543C33.2286 88.5206 32.3295 89.7497 31.9851 91.162C31.4897 92.1584 31.4858 93.2886 31.8519 94.3236C28.2824 95.6388 23.6115 96.5263 20.5314 94.5406C17.3793 92.5083 20.0725 86.9682 20.412 84.9789C24.5875 72.5368 33.7576 62.105 42.3484 52.1192C48.2667 45.2401 54.5857 38.6678 61.3488 32.4967C64.4772 29.6419 68.2757 25.9647 72.5952 22.8104C73.7361 22.1216 74.8996 21.4641 76.0918 20.8458C80.4409 18.5937 85.8115 16.1419 90.9177 16.239C91.0933 16.2427 91.268 16.2518 91.4417 16.2637C91.722 16.2875 92.0042 16.3288 92.2865 16.3654C94.8237 16.7812 96.8774 18.2503 97.06 20.9338C97.2367 23.5202 95.9053 26.1716 94.8701 28.4998Z" fill="black" fill-opacity="0.07"/>
<path d="M113.886 51.3723C114.025 51.1882 114.067 50.9455 113.892 50.6845C108.922 43.2833 99.2289 41.2043 90.4486 40.5659C89.6315 40.5064 88.8084 40.4725 87.9883 40.4258C83.0855 39.9019 78.1531 39.7957 73.5463 39.8479C59.0155 40.0127 44.4896 41.5267 30.1434 43.5993C30.1315 43.6011 30.1276 43.6084 30.1167 43.6103C28.4499 43.7916 26.7445 44.2944 25.1951 44.6635C24.7234 44.7643 24.2507 44.8641 23.7809 44.9722C22.0263 45.3229 20.0071 45.6847 18.3807 46.379C14.5418 47.4972 10.8883 48.9397 7.64348 51.1168C5.78913 52.0665 4.02459 53.1399 2.44065 54.3809C-1.37167 57.3667 0.343524 61.1996 3.45121 64.0828C10.1057 70.2576 21.3838 70.4353 30.1325 71.081C42.5228 71.995 55.0048 72.0857 67.3754 70.8703C78.157 69.8106 88.769 67.6602 98.9782 64.2971C99.1598 64.5004 99.3621 64.69 99.5911 64.8521C100.323 65.3696 101.145 65.6233 101.968 65.659C102.519 65.9283 103.272 65.8706 103.784 65.6169C104.089 65.4657 104.352 65.2588 104.578 65.0179C105.255 64.6286 105.842 64.0754 106.26 63.3913C106.61 62.8198 106.802 62.1878 106.857 61.5431C109.83 60.3991 112.78 58.8834 114.052 56.3382C114.923 54.5907 114.696 52.8899 113.886 51.3723ZM112.023 57.1569C110.671 58.5811 108.72 59.497 106.787 60.2663C106.517 58.8019 105.593 57.4244 104.214 56.6807C101.364 55.1438 99.0148 57.5755 98.396 60.0163C98.3693 60.1198 98.3555 60.2233 98.3387 60.3268C97.8927 61.2381 97.9134 62.339 98.3338 63.297C90.499 65.8 82.3651 67.5191 74.176 68.6218C63.42 70.0708 52.5258 70.4838 41.6681 70.1669C36.34 70.0112 31.0177 69.6797 25.7123 69.2025C21.1736 68.7949 16.5777 68.3691 12.2236 67.0429C8.38857 65.8742 2.63703 63.1623 1.82582 58.9814C1.14487 55.4754 7.27044 53.3258 9.0261 52.1416C21.4588 46.084 35.8919 44.7249 49.575 43.3016C59.0007 42.3207 68.4767 41.8207 77.9616 41.8948C82.3483 41.9287 87.8364 41.8216 93.2948 42.426C94.6261 42.6871 95.9505 42.9866 97.264 43.3318C102.055 44.593 107.721 46.3835 111.257 49.8034C111.378 49.9216 111.495 50.0424 111.608 50.1652C111.788 50.3657 111.957 50.5801 112.128 50.7907C113.605 52.7525 113.938 55.1393 112.023 57.1569Z" fill="black" fill-opacity="0.07"/>
<path d="M52.98 72.982C62.4057 80.0544 72.7147 86.0341 83.8181 90.5631C87.6235 92.1155 92.7947 94.7852 97.0571 93.3363C99.0071 92.6732 100.142 91.3223 100.726 89.7168C100.965 89.6783 101.179 89.5336 101.254 89.2341C103.379 80.7385 98.1091 72.9087 92.3871 66.6954C91.8542 66.1166 91.2986 65.5533 90.7539 64.9818C87.6857 61.3934 84.2789 58.0826 80.9818 55.0959C70.581 45.6761 59.1559 37.2153 47.4328 29.2665C47.4229 29.26 47.415 29.2619 47.4051 29.2573C46.0886 28.292 44.4998 27.5281 43.1221 26.7716C42.7115 26.5335 42.302 26.2935 41.8865 26.0618C40.3786 25.1588 38.6752 24.089 36.9955 23.5129C33.428 21.7847 29.7469 20.4072 25.7935 19.8174C23.7585 19.2725 21.692 18.8731 19.6274 18.711C14.6565 18.3209 12.9492 22.1556 12.9492 26.234C12.9502 34.9669 20.789 42.4935 26.4833 48.6921C34.5491 57.4689 43.3066 65.7237 52.98 72.982ZM35.3396 55.6161C31.6901 52.0094 28.1807 48.2827 24.7918 44.4635C21.8933 41.1975 18.9672 37.8802 16.8987 34.0849C15.0769 30.7419 13.0765 25.0498 15.6878 21.5612C17.8777 18.635 23.8473 21.1353 25.9908 21.4504C39.3976 25.3255 50.6382 33.8357 61.3981 41.8084C68.8106 47.3009 75.8924 53.1652 82.542 59.4417C85.6181 62.345 89.5805 65.8702 92.9793 69.879C93.7214 70.9378 94.43 72.0176 95.0961 73.1239C97.5229 77.1602 100.165 82.1444 100.06 86.8831C100.056 87.0461 100.046 87.2082 100.033 87.3685C100.008 87.6286 99.9634 87.8906 99.9239 88.1525C99.4759 90.5072 97.893 92.4141 95.0014 92.5826C92.2144 92.7456 89.3574 91.5101 86.8488 90.5493C77.0885 86.8135 67.952 81.7084 59.5023 75.8542C50.7931 69.8222 42.7747 62.9651 35.3396 55.6161Z" fill="black" fill-opacity="0.07"/>
<path d="M68.9652 54.0951C67.4937 45.3174 54.2922 43.7732 48.8121 50.2466C47.9722 51.2394 47.3683 52.4108 47.0071 53.6555C45.5613 57.4655 46.7377 62.0192 51.379 64.6752C52.0944 65.0846 52.8455 65.3915 53.6182 65.6085C54.8518 66.0069 56.1367 66.1645 57.3565 65.9813C63.7199 65.5783 69.9964 60.2433 68.9652 54.0951ZM56.5127 63.8189C55.1153 63.6183 53.7712 63.4251 52.4695 62.6786C55.285 63.328 58.7796 62.9946 61.0158 61.8773C61.2695 61.7509 61.2448 61.3039 60.929 61.2627C59.2089 61.0365 57.542 61.3973 55.8189 61.4596C54.0564 61.5228 52.3579 61.2682 50.6191 61.1253C50.3467 60.7974 50.1128 60.443 49.9055 60.0748C52.9037 60.7855 56.9607 60.9073 59.277 59.2313C59.424 59.1251 59.3283 58.9016 59.1714 58.8604C57.6782 58.472 56.1357 58.8961 54.6189 59.0188C52.877 59.1599 51.1115 59.1278 49.3785 58.8961C49.1397 58.2165 49.0085 57.504 48.965 56.7859C52.0224 58.1533 56.793 58.8549 59.2829 56.4351C59.5355 56.1897 59.3352 55.8444 59.0046 55.8123C57.3358 55.6493 55.6699 56.2565 54.0021 56.3472C52.3165 56.4379 50.5756 56.2565 48.969 55.7519C49.0223 55.0119 49.194 54.2838 49.4624 53.5904C51.9987 55.7034 56.3568 55.5348 59.2572 54.0731C59.4161 53.9925 59.3964 53.7251 59.2039 53.6939C56.3558 53.2333 52.3974 54.3323 49.8986 52.6764C49.9815 52.5299 50.0555 52.3796 50.1503 52.2395C50.5756 51.6094 51.1174 51.059 51.7352 50.5827C53.8373 53.1591 58.1371 53.6573 61.1244 51.7037C61.3711 51.5425 61.2685 51.2266 60.9764 51.1973C58.2052 50.9216 54.835 51.7678 52.5662 50.0176C53.6813 49.3509 54.9811 48.9085 56.3282 48.6768C56.7594 49.0514 57.241 49.3573 57.9042 49.5789C59.1862 50.0075 60.6596 50.0771 61.9761 49.7602C62.2267 49.6998 62.3146 49.3197 62.0531 49.2107C61.3682 48.9259 60.6122 48.7436 59.8424 48.5788C63.2689 48.99 66.2749 50.9133 66.6243 54.5365C67.1227 59.6764 61.7935 63.8125 56.5127 63.8189Z" fill="black" fill-opacity="0.07"/>
</svg>
