<svg width="80" height="68" viewBox="0 0 80 68" fill="none" xmlns="http://www.w3.org/2000/svg">
<path d="M72.8034 22.9009C69.8653 18.2596 64.731 12.8197 59.6705 10.8445C56.556 9.62909 53.116 8.7511 49.8621 8.04589C48.0407 7.65128 38.0283 9.24724 33.6705 13.9672C29.3122 18.6872 25.3132 24.2078 24.1387 29.6511C23.0683 34.6117 22.8693 41.2456 25.1303 45.9112C27.3958 50.5861 32.6077 54.0684 36.8904 56.459C46.3824 61.7578 58.6649 58.7373 67.0633 52.4529C75.7132 45.9811 78.8567 32.4632 72.8034 22.9009ZM54.0029 56.7615C52.2842 57.1864 50.5899 57.4559 48.9206 57.5601C49.1677 57.3907 49.4058 57.2153 49.6317 57.0492C50.5861 56.3501 51.7676 55.499 52.2252 54.3373C52.3099 54.1222 52.0609 53.9003 51.8696 54.0092C50.8864 54.5692 50.1509 55.5817 49.2364 56.2687C48.6023 56.7447 47.8258 57.1104 47.1795 57.6072C46.5743 57.6005 45.9736 57.5615 45.3754 57.507C45.9248 57.1823 46.4389 56.779 46.9548 56.3306C48.1659 55.2778 49.4995 54.256 50.3935 52.8832C50.5219 52.6862 50.3069 52.4382 50.106 52.5397C47.7885 53.7121 46.2746 56.3749 43.8512 57.3101C43.2171 57.2052 42.5875 57.0681 41.9618 56.9033C42.3667 56.7017 42.7659 56.4428 43.1651 56.176C44.7176 55.1393 46.367 54.0254 47.415 52.4146C47.5318 52.2351 47.3341 51.9898 47.1461 52.094C46.0968 52.6755 45.2458 53.4634 44.2947 54.1975C43.3153 54.9531 41.7667 56.4731 40.3714 56.4119C39.8586 56.2317 39.3497 56.022 38.842 55.7981C39.6359 55.4795 40.3997 54.9558 41.0966 54.5437C42.7094 53.5898 44.4262 52.494 45.6604 51.0365C45.8144 50.855 45.6572 50.5249 45.4165 50.656C42.9026 52.024 40.51 54.4294 37.7164 55.261C37.1355 54.9632 36.5579 54.6385 35.9855 54.2761C39.3138 52.8207 43.1048 51.0869 44.751 47.5542C44.8293 47.3868 44.5892 47.2335 44.4692 47.3558C41.7128 50.1625 38.7111 52.0946 35.2596 53.8082C34.698 53.4405 34.1467 53.0647 33.6051 52.6815C36.712 51.4614 39.7425 49.3941 41.9329 46.8725C42.1479 46.6251 41.87 46.2991 41.6081 46.4859C38.7207 48.5451 35.8796 50.3871 32.8304 52.1182C32.0224 51.5178 31.2497 50.8913 30.5207 50.2298C32.1752 49.9481 33.5781 49.058 35.0857 48.1491C37.0579 46.9599 39.0757 45.6933 40.7488 44.0644C40.9189 43.8984 40.7321 43.5798 40.5158 43.7014C37.2126 45.5562 33.7527 49.0849 29.9366 49.6839C29.3616 49.1259 28.8231 48.5397 28.3238 47.9239C32.05 46.3441 35.6864 44.3744 38.8626 41.7909C39.0763 41.6167 38.8376 41.2631 38.602 41.3848C34.9682 43.251 31.4301 45.3377 27.8361 47.294C27.3965 46.6977 27.0011 46.0671 26.6443 45.4056C29.1305 44.6446 31.5315 43.4567 33.4395 41.6006C33.6628 41.3835 33.4183 40.968 33.134 41.1253C30.8525 42.3858 28.6486 43.6584 26.2432 44.607C25.8651 43.7922 25.5609 42.9202 25.3248 41.9952C26.0859 42.207 26.926 41.6409 27.6589 41.2403C29.5028 40.2319 31.3569 39.1435 32.9229 37.6961C33.1006 37.5314 32.9062 37.2437 32.695 37.3418C31.4699 37.9126 30.3256 38.6265 29.162 39.3203C28.499 39.7156 25.887 41.7445 25.1541 41.1341C25.1431 41.1246 25.131 41.1233 25.1194 41.1159C25.0424 40.7179 24.9769 40.3112 24.9282 39.8917C24.8819 39.4944 24.8447 39.0971 24.8133 38.7004C26.505 37.8722 28.1903 37.044 29.7807 36.0087C29.8943 35.9348 29.8481 35.6995 29.6973 35.7526C27.9972 36.3462 26.3799 37.1274 24.7626 37.9233C24.7337 37.403 24.7273 36.8847 24.7247 36.367C25.6546 35.9294 26.5474 35.483 27.4196 34.8961C27.6275 34.7563 27.5492 34.3664 27.2694 34.4329C26.3317 34.6548 25.5289 35.0151 24.7343 35.4857C24.8344 31.1368 25.8536 26.9123 27.9554 23.1349C27.7738 23.9012 27.639 24.6817 27.5575 25.4622C26.7335 27.8468 26.4184 30.5271 28.5485 32.2991C29.7659 33.3123 31.6842 33.6383 33.1706 33.4333C34.707 33.2215 35.7859 31.7398 37.0983 31.1886C36.9719 32.4289 36.8397 33.7956 37.975 34.4282C38.3293 34.6252 38.7323 34.3401 39.0872 34.3482C39.9902 34.367 40.7809 34.439 41.5517 34.5311C41.6486 34.5425 41.7294 34.6326 41.8373 34.6353C42.7364 34.6588 43.0457 34.5566 43.8627 34.0887C45.8157 32.9701 46.8798 31.9314 48.9226 33.5301C53.1763 36.8591 48.2397 37.6376 46.5249 40.1472C44.586 42.9841 50.1991 47.1528 52.1584 48.4301C54.2378 49.7861 56.7093 50.7111 58.9203 51.7995C60.4946 52.5746 62.1401 52.8287 63.819 52.7232C60.7128 54.6143 57.2427 55.9601 54.0029 56.7615ZM70.4236 46.9438C69.1157 48.6795 67.4753 50.1968 65.6545 51.5071C65.53 51.2819 65.2971 51.1266 64.9813 51.1857C61.4117 51.8593 59.3824 50.0832 56.3211 48.8422C53.6763 47.77 51.7053 46.7528 49.6471 44.5834C47.9875 42.8335 46.668 42.1861 49.0978 39.6046C49.624 39.0453 50.4988 38.8006 51.0559 38.281C52.0314 37.37 52.0647 37.0379 51.8093 35.6914C51.1297 32.1143 50.0354 30.3899 46.383 31.4346C45.3716 31.7237 44.6059 32.3825 43.6606 32.7496C42.6729 33.1328 42.1562 32.876 41.1801 32.8081C39.4068 32.685 38.2073 33.2202 38.3293 30.4383C38.3479 30.0121 38.018 29.7614 37.64 29.7963C35.4431 30 34.7789 32.2306 32.1733 32.316C29.2993 32.4101 28.2218 30.7187 28.0106 28.6152C28.1165 26.7375 28.4137 24.8316 28.9804 23.073C29.2339 22.2858 29.5586 21.547 29.9148 20.8276C31.7985 18.304 32.9055 16.4028 36.0811 13.7857C39.2566 11.1692 50.6278 7.63717 56.2755 11.5968C57.6926 13.6943 58.2779 15.9806 57.4397 18.5964C57.0777 19.7265 56.0201 20.9997 56.0605 22.2421C56.0746 22.6737 56.2665 23.1685 56.4732 23.5449C56.5521 23.6888 57.8196 25.0199 58.0276 25.2061C58.7926 26.1621 58.9164 26.8814 58.8343 27.959C56.9821 26.6905 53.7411 25.9032 52.7694 28.2743C51.8773 30.4511 52.6379 35.6544 55.5625 35.2827C56.6554 35.1435 57.6797 34.402 58.7675 34.2279C58.7059 34.238 59.7328 34.1909 59.7668 34.1896C61.9739 34.1082 61.9944 33.4655 63.1176 35.9005C64.5577 39.0218 63.0842 38.0645 61.9046 40.1257C61.7108 40.4638 61.5253 40.8537 61.4938 41.2503C61.2435 44.3858 65.6257 48.5861 68.3841 48.9619C68.3731 48.9962 68.3654 49.0325 68.3654 49.0748C68.3654 49.1078 68.4116 49.1333 68.4296 49.0984C68.4899 49.019 68.5663 48.9659 68.6587 48.9397C68.7069 48.9256 68.7127 48.8597 68.6658 48.8389C68.6581 48.8355 68.6517 48.8375 68.644 48.8348C68.6408 48.8147 68.6343 48.7938 68.6177 48.777C67.5266 47.6375 66.1506 46.9505 65.0975 45.737C64.4178 44.9538 63.3338 43.686 63.0797 42.6345C62.7023 41.0729 63.5976 40.5788 64.1887 39.5327C65.0307 38.0423 65.686 36.6299 64.7836 34.8887C63.6791 32.757 61.8776 32.8121 59.9208 33.0286C58.987 33.1321 58.1335 33.1079 57.2183 33.0333C56.8878 33.0064 56.4411 33.4837 56.1812 33.4333C54.9181 33.1906 53.9952 32.0444 53.7064 30.9163C52.8651 27.633 57.0906 27.4212 58.8619 29.4212C59.1905 29.7923 59.7501 29.5718 59.8117 29.0884C60.0139 27.4932 60.2315 25.6471 59.2855 24.2394C58.1983 22.6226 57.2266 22.9991 57.8447 20.4868C58.4069 18.2011 59.5159 17.5551 59.0294 15.0771C58.8202 14.0109 58.4402 13.0321 57.9454 12.1138C59.4267 12.6166 60.8559 13.2526 62.1632 14.2059C66.9965 17.7312 72.1141 22.837 73.6332 28.962C75.0304 34.5929 73.9368 42.2809 70.4236 46.9438Z" fill="black" fill-opacity="0.07"/>
<path d="M65.7837 47.4443C66.0994 47.9613 66.652 48.4037 67.1205 48.7701C67.6628 49.1936 68.2815 49.5499 68.9162 49.7953C69.3404 49.9593 69.6312 49.2393 69.2256 49.0275C68.6768 48.7405 68.123 48.4729 67.58 48.1717C67.0499 47.878 66.5397 47.4712 65.9967 47.2218C65.8665 47.162 65.6912 47.2931 65.7837 47.4443Z" fill="black" fill-opacity="0.07"/>
<path d="M62.2602 52.6458C63.0964 52.719 63.8531 52.434 64.6527 52.2162C65.4967 51.9863 66.3682 51.9762 67.2122 51.7691C67.6794 51.6549 67.5594 50.9308 67.1018 50.9154C65.4793 50.8602 63.7286 51.5197 62.1645 51.9056C61.748 52.0091 61.8757 52.6122 62.2602 52.6458Z" fill="black" fill-opacity="0.07"/>
<path d="M24.8864 47.4125C23.8307 48.353 22.601 49.5557 22.2558 51.0152C22.2121 51.198 22.4265 51.3318 22.5574 51.1994C23.0471 50.7026 23.4148 50.1076 23.8288 49.5436C24.2748 48.9352 24.7741 48.3786 25.3119 47.8589C25.5995 47.5799 25.1778 47.153 24.8864 47.4125Z" fill="black" fill-opacity="0.07"/>
<path d="M20.8462 54.1238C20.3225 54.6925 19.8912 55.3338 19.5883 56.0592C19.3566 56.6131 19.0165 57.3546 19.2976 57.9348C19.3669 58.0787 19.5729 58.0982 19.6756 57.9859C20.0324 57.5946 20.0389 56.9526 20.2263 56.4572C20.4817 55.7802 20.8712 55.1745 21.343 54.6434C21.6504 54.2985 21.1613 53.7822 20.8462 54.1238Z" fill="black" fill-opacity="0.07"/>
<path d="M19.6336 60.5981C19.3537 61.4162 19.3672 62.5893 20.4563 62.633C21.548 62.6767 22.4978 61.4848 23.0825 60.6713C23.1557 60.5698 23.0138 60.4314 22.9176 60.4986C22.3798 60.8777 21.8054 61.2253 21.2361 61.5513C21.0063 61.6824 20.6489 61.9433 20.3761 61.8895C19.8229 61.7799 19.9782 61.113 20.0687 60.7238C20.138 60.4246 19.7305 60.3144 19.6336 60.5981Z" fill="black" fill-opacity="0.07"/>
<path d="M27.3818 57.9544C27.8837 57.5033 28.385 57.0516 28.8836 56.5971C29.0794 56.4183 28.8214 56.0627 28.6044 56.218C28.0576 56.6072 27.5134 57.0005 26.9692 57.3938C26.5661 57.6848 27.0038 58.2939 27.3818 57.9544Z" fill="black" fill-opacity="0.07"/>
<path d="M35.2214 51.2696C36.6911 49.716 38.1948 48.1899 39.6311 46.604C39.6991 46.5288 39.5984 46.4299 39.5246 46.4925C37.9002 47.8773 36.3278 49.3361 34.7317 50.7573C34.3954 51.0571 34.9037 51.605 35.2214 51.2696Z" fill="black" fill-opacity="0.07"/>
<path d="M43.2001 42.9526C44.4741 41.8998 45.7378 40.8692 46.9103 39.6934C47.0682 39.5355 46.8615 39.2424 46.6735 39.3721C45.2969 40.322 44.037 41.4017 42.7535 42.4847C42.4351 42.7529 42.885 43.2128 43.2001 42.9526Z" fill="black" fill-opacity="0.07"/>
<path d="M50.8707 36.554C51.1351 36.554 51.1357 36.123 50.8707 36.123C50.6056 36.1237 50.6056 36.554 50.8707 36.554Z" fill="black" fill-opacity="0.07"/>
<path d="M57.1972 31.6035C57.9898 30.7221 58.8505 29.8704 59.5173 28.8768C59.6469 28.6838 59.3864 28.4055 59.2015 28.546C58.2645 29.2599 57.4655 30.1729 56.6369 31.0166C56.2705 31.3897 56.8474 31.992 57.1972 31.6035Z" fill="black" fill-opacity="0.07"/>
<path d="M63.6752 25.6907C64.222 25.1018 64.9067 24.5136 65.2777 23.7795C65.4125 23.5126 65.1423 23.2275 64.8868 23.3701C64.1867 23.76 63.627 24.4779 63.0661 25.052C62.6675 25.4588 63.2875 26.1082 63.6752 25.6907Z" fill="black" fill-opacity="0.07"/>
<path d="M69.1228 19.9095C70.0264 19.1028 70.9468 18.2779 71.6508 17.2702C71.7163 17.1767 71.5821 17.0947 71.509 17.1559C70.5835 17.9297 69.7575 18.8251 68.8462 19.6197C68.6537 19.7878 68.9322 20.0802 69.1228 19.9095Z" fill="black" fill-opacity="0.07"/>
<path d="M73.5046 15.4912C73.787 15.102 74.0693 14.7128 74.3511 14.3235C74.6232 13.9484 74.9127 13.6156 74.9884 13.1383C75.0288 12.8835 74.8061 12.6845 74.5757 12.8062C74.1592 13.0267 73.9359 13.4214 73.6734 13.8099C73.3891 14.2308 73.1048 14.6523 72.8198 15.0731C72.522 15.5141 73.2029 15.9074 73.5046 15.4912Z" fill="black" fill-opacity="0.07"/>
<path d="M74.2313 10.9266C74.022 10.6906 73.8013 10.4775 73.5452 10.2987C73.3957 10.1938 73.2371 10.3948 73.3122 10.5427C73.4586 10.8331 73.6434 11.0818 73.8488 11.3272C74.0772 11.6008 74.4694 11.1948 74.2313 10.9266Z" fill="black" fill-opacity="0.07"/>
<path d="M70.429 10.9544C69.9008 11.3093 69.3733 11.6643 68.8451 12.0199C68.6648 12.1409 68.822 12.4179 69.012 12.3191C69.5754 12.0273 70.1383 11.7362 70.7018 11.4445C71.013 11.2831 70.7249 10.7554 70.429 10.9544Z" fill="black" fill-opacity="0.07"/>
<path d="M65.981 14.5124C66.3616 14.5124 66.3622 13.8926 65.981 13.8926C65.6004 13.8926 65.5998 14.5124 65.981 14.5124Z" fill="black" fill-opacity="0.07"/>
<path d="M45.3882 8.87852C45.1957 7.96962 45.0378 7.04526 44.7683 6.15787C44.7259 6.01804 44.5 6.03351 44.5122 6.19418C44.5834 7.14073 44.7728 8.07718 44.9242 9.0123C44.9749 9.32826 45.4556 9.19919 45.3882 8.87852Z" fill="black" fill-opacity="0.07"/>
<path d="M44.0053 3.60661C43.7775 2.94914 43.601 2.23722 43.1992 1.66916C43.0984 1.52664 42.8302 1.55151 42.8443 1.76999C42.8892 2.47453 43.1825 3.12326 43.4155 3.77737C43.5515 4.15921 44.1401 3.99653 44.0053 3.60661Z" fill="black" fill-opacity="0.07"/>
<path d="M40.5242 0.0010881C39.6745 0.0730203 38.9108 0.495879 38.4076 1.22461C37.95 1.88814 37.597 2.91537 38.0636 3.6636C38.1753 3.84242 38.4712 3.83233 38.5219 3.60107C38.6598 2.96981 38.6579 2.35537 39.0096 1.79134C39.3831 1.19236 39.9376 0.790337 40.6109 0.672018C40.9709 0.608153 40.8907 -0.029836 40.5242 0.0010881Z" fill="black" fill-opacity="0.07"/>
<path d="M37.6935 8.18226C37.6486 9.4273 37.7467 10.5002 38.1947 11.6579C38.2685 11.8488 38.583 11.8495 38.5689 11.6048C38.5053 10.47 38.3994 9.32041 38.4059 8.18226C38.4084 7.70092 37.7108 7.70361 37.6935 8.18226Z" fill="black" fill-opacity="0.07"/>
<path d="M38.4129 16.3892C38.5553 17.3505 38.6368 18.3603 38.9564 19.2793C39.0418 19.5253 39.3711 19.483 39.3897 19.2181C39.4583 18.2433 39.2741 17.2484 39.1612 16.283C39.0951 15.7129 38.3275 15.8117 38.4129 16.3892Z" fill="black" fill-opacity="0.07"/>
<path d="M39.6717 24.3756C39.8879 25.5931 40.0651 26.8294 40.3943 28.0206C40.4328 28.1605 40.6433 28.1369 40.6408 27.9857C40.6157 26.748 40.4328 25.5151 40.2923 24.2875C40.2377 23.8143 39.5869 23.8997 39.6717 24.3756Z" fill="black" fill-opacity="0.07"/>
<path d="M41.0655 32.1902C41.3215 33.7424 41.6232 35.3128 42.2932 36.7353C42.4029 36.9679 42.6885 36.7884 42.6596 36.5733C42.4523 35.0271 42.0577 33.5138 41.8292 31.9697C41.7515 31.4466 40.9782 31.6644 41.0655 32.1902Z" fill="black" fill-opacity="0.07"/>
<path d="M42.7899 40.7784C42.874 42.2016 43.1262 43.6423 43.8566 44.8678C44.0189 45.1407 44.5003 45.0533 44.4733 44.693C44.3694 43.3041 43.9323 41.9811 43.4798 40.6809C43.3521 40.3165 42.7636 40.3367 42.7899 40.7784Z" fill="black" fill-opacity="0.07"/>
<path d="M44.7311 49.5312C45.1463 50.6216 45.5166 51.7463 45.9986 52.8064C46.1103 53.0525 46.453 52.873 46.4017 52.6283C46.1668 51.509 45.808 50.4085 45.5045 49.3073C45.3594 48.7796 44.5431 49.0371 44.7311 49.5312Z" fill="black" fill-opacity="0.07"/>
<path d="M48.812 58.3293C49.1001 58.9323 49.3787 59.5374 49.6482 60.1491C49.7503 60.3811 50.0917 60.2143 50.0333 59.979C49.8697 59.3189 49.7169 58.6581 49.5731 57.9932C49.4448 57.4023 48.5283 57.737 48.812 58.3293Z" fill="black" fill-opacity="0.07"/>
<path d="M51.5846 64.3246C51.9459 65.3525 52.6295 66.3326 53.5498 66.8879C54.2545 67.3128 55.289 67.3511 55.5746 66.3932C55.6176 66.2486 55.443 66.0906 55.3166 66.1854C54.1447 67.0654 52.7411 64.9209 52.2258 64.0409C52.0268 63.7007 51.4421 63.9192 51.5846 64.3246Z" fill="black" fill-opacity="0.07"/>
<path d="M56.6348 61.947C56.4095 61.0455 56.3665 60.1003 56.1105 59.2102C56.0533 59.0126 55.7645 58.9985 55.7138 59.2102C55.4853 60.1716 55.7036 61.2075 55.9385 62.148C56.0559 62.6186 56.7522 62.4189 56.6348 61.947Z" fill="black" fill-opacity="0.07"/>
<path d="M28.7113 20.304C27.5727 19.9625 26.3578 19.9504 25.1827 19.8456C24.3869 19.7743 23.4922 19.6217 22.7157 19.8946C21.7383 20.2382 20.8905 21.4839 21.7723 22.3954C21.8531 22.4788 21.9635 22.3914 21.9481 22.2879C21.5688 19.7232 27.4643 20.8909 28.7113 20.6993C28.9115 20.6684 28.882 20.3551 28.7113 20.304Z" fill="black" fill-opacity="0.07"/>
<path d="M23.1348 24.4902C23.9306 25.7258 25.132 26.4888 26.5677 26.3167C26.6794 26.3033 26.7307 26.115 26.5972 26.0895C25.426 25.865 24.2451 25.2673 23.5327 24.2461C23.3614 23.9994 22.966 24.2287 23.1348 24.4902Z" fill="black" fill-opacity="0.07"/>
<path d="M29.0151 27.9838C30.5509 28.9707 32.1226 29.6295 33.9126 29.8782C34.0332 29.895 34.0499 29.696 33.9408 29.6618C32.3113 29.1535 30.7011 28.4961 29.2378 27.5851C28.9927 27.4325 28.7732 27.8285 29.0151 27.9838Z" fill="black" fill-opacity="0.07"/>
<path d="M38.4077 32.0984C40.5666 32.8143 42.7031 33.5935 44.9314 34.0419C45.097 34.0748 45.2318 33.818 45.0553 33.7346C42.9688 32.7504 40.7771 32.0916 38.5995 31.369C38.1554 31.2224 37.9655 31.9518 38.4077 32.0984Z" fill="black" fill-opacity="0.07"/>
<path d="M47.0058 35.0385C48.7688 35.5636 50.5241 36.2062 52.3608 36.3548C52.5206 36.3676 52.5912 36.1041 52.4443 36.0321C50.7776 35.2126 48.951 34.8651 47.1714 34.4113C46.7824 34.3118 46.6194 34.9236 47.0058 35.0385Z" fill="black" fill-opacity="0.07"/>
<path d="M57.164 37.8532C57.4868 37.8532 57.4874 37.3281 57.164 37.3281C56.8412 37.3281 56.8412 37.8532 57.164 37.8532Z" fill="black" fill-opacity="0.07"/>
<path d="M56.6165 37.8444C58.3191 38.2666 59.9274 38.4737 61.6808 38.4118C61.8367 38.4064 61.8881 38.1422 61.7193 38.1127C60.0705 37.8249 58.4147 37.5654 56.7679 37.267C56.4124 37.2024 56.2526 37.7543 56.6165 37.8444Z" fill="black" fill-opacity="0.07"/>
<path d="M66.2545 39.5114C67.8134 39.4381 69.3665 39.3547 70.919 39.1853C71.0955 39.1665 71.1038 38.8949 70.919 38.8908C69.362 38.8579 67.8108 38.9117 66.2545 38.9756C65.9259 38.989 65.9253 39.5268 66.2545 39.5114Z" fill="black" fill-opacity="0.07"/>
<path d="M75.0528 39.9752C75.9892 39.7662 76.9198 39.5322 77.842 39.2626C78.4126 39.0959 79.2745 38.9857 79.7115 38.511C80.4252 37.7366 79.6673 36.0069 78.8541 35.6573C78.7418 35.6089 78.5961 35.7319 78.6064 35.8549C78.6398 36.2388 78.7752 36.4694 78.9292 36.825C79.1224 37.2721 79.2559 37.4489 78.9889 37.8771C78.7508 38.2583 78.5403 38.2643 78.1398 38.3968C77.0655 38.751 75.9783 39.0569 74.8828 39.3278C74.4791 39.4267 74.6504 40.0653 75.0528 39.9752Z" fill="black" fill-opacity="0.07"/>
<path d="M77.3307 34.4059C76.8821 34.2849 76.4316 34.1787 75.9695 34.1336C75.7763 34.1148 75.7032 34.4261 75.8707 34.5155C76.2846 34.736 76.7217 34.896 77.1632 35.0439C77.5502 35.1736 77.7254 34.5121 77.3307 34.4059Z" fill="black" fill-opacity="0.07"/>
<path d="M1.72212 31.4083C-1.47461 32.6641 0.362808 37.337 2.5314 38.7642C5.34178 40.6136 9.48514 38.0933 10.3798 35.048C11.4439 31.4258 8.84657 28.4571 5.45667 28.084C1.61366 27.6611 -0.674314 32.2305 0.379497 35.7518C0.511704 36.1942 1.24654 36.2869 1.32741 35.7518C1.63675 33.6954 1.30945 31.2282 3.23801 29.9146C5.60107 28.3052 9.40172 30.123 9.41776 33.1986C9.42867 35.3263 7.82805 36.9498 6.09138 37.7525C4.39193 38.5377 2.76566 37.9548 1.82994 36.3078C1.07712 34.9828 0.588713 33.1172 1.96663 32.0134C2.22077 31.8083 2.09114 31.2638 1.72212 31.4083Z" fill="black" fill-opacity="0.07"/>
<path d="M7.80057 37.0983C7.59584 36.9054 7.42576 36.6936 7.24927 36.4731C7.13567 36.3306 6.92195 36.1383 6.88088 35.9535C6.83339 35.741 6.78205 36.0093 6.93736 35.9192C7.30126 35.7088 7.5907 35.6819 7.74216 35.2073C7.86025 34.8375 7.65231 33.9098 8.04829 33.7229C8.49561 33.5118 8.98914 34.215 9.48396 34.1222C9.65275 34.0906 9.70667 33.8977 9.68677 33.7478C9.60077 33.0957 8.52257 32.7683 7.97897 32.8503C7.2345 32.9626 7.01629 33.6328 6.98228 34.3299C6.97008 34.5867 7.04261 34.8705 6.80066 35.0567C6.70246 35.132 6.48875 35.1212 6.37194 35.1891C6.09405 35.3491 5.9426 35.5985 5.98303 35.9326C6.07994 36.738 6.92452 37.2657 7.58555 37.4849C7.79285 37.5528 7.96486 37.2523 7.80057 37.0983Z" fill="black" fill-opacity="0.07"/>
<path d="M3.44684 31.6246C3.0945 32.1167 3.30822 32.7224 3.72923 33.0908C4.31005 33.599 5.05965 33.4625 5.69566 33.1446C6.77386 32.6054 8.4303 31.3691 7.59598 29.9217C7.31745 29.4384 6.61214 28.8488 6.04287 28.8575C5.70658 28.8629 5.53009 29.0868 5.7361 29.4095C5.91259 29.6851 6.3246 29.841 6.56399 30.0367C7.071 30.4508 7.11336 30.9637 6.67181 31.4625C6.19047 32.0071 3.94487 33.3281 4.0437 31.7946C4.06873 31.4256 3.61756 31.3866 3.44684 31.6246Z" fill="black" fill-opacity="0.07"/>
<path d="M3.43167 31.981C3.4291 31.4923 3.50804 30.8798 3.72753 30.4462C3.94638 30.0119 4.29873 29.6852 4.57213 29.2926C4.67417 29.146 4.53299 28.9719 4.39051 28.9605C3.70187 28.906 3.17239 29.5017 2.90092 30.1087C2.58965 30.8045 2.555 31.4627 2.94649 32.1181C3.07998 32.344 3.43295 32.258 3.43167 31.981Z" fill="black" fill-opacity="0.07"/>
<path d="M1.70946 34.9168C1.96489 35.5547 2.45009 35.8478 3.05273 36.0838C3.3948 36.2176 4.18098 36.4529 4.2503 36.9282C4.29907 37.2643 3.71889 37.7819 3.55716 38.0482C3.82992 38.2149 4.10269 38.3823 4.37545 38.549C4.8831 37.6119 4.77976 36.4845 4.1906 35.6092C3.54625 34.6512 2.45586 34.1921 1.38857 34.0079C1.10361 33.9588 0.719194 34.141 0.756418 34.5127C0.921998 36.1625 2.11893 37.068 3.30174 37.9917C3.21959 37.8794 3.13679 37.7672 3.05465 37.6549C3.06876 37.6972 3.08289 37.7403 3.09701 37.7833C3.11498 37.6367 3.13359 37.4908 3.15156 37.3443C3.31264 37.3322 3.47437 37.3194 3.63546 37.3073C3.51545 37.1614 3.29146 37.1877 3.1676 37.3073C2.97634 37.4922 2.94104 37.7853 3.0925 38.0119C3.29595 38.3157 3.63481 38.3581 3.90565 38.1214C3.93902 38.0925 3.97177 38.0636 4.00514 38.0347C4.20345 37.8619 4.18291 37.5628 4.08985 37.345C3.88255 36.8583 3.13937 36.5853 2.75943 36.2378C2.26076 35.782 1.81536 35.2294 1.75504 34.5134C1.54453 34.6815 1.33337 34.8495 1.12287 35.0183C2.41414 35.2643 4.4518 36.3225 3.55716 38.0495C3.26643 38.6108 4.05648 39.0962 4.37545 38.5503C4.81764 37.7927 5.48253 37.1137 4.80737 36.2331C4.15596 35.3833 2.72028 35.6428 2.24215 34.6835C2.09133 34.3823 1.58046 34.5947 1.70946 34.9168Z" fill="black" fill-opacity="0.07"/>
<path d="M3.36768 31.1213C3.13086 31.7096 3.31632 32.3153 3.63978 32.8289C3.79317 33.0729 4.08582 33.1684 4.33676 33.0205C5.11204 32.564 5.25388 31.3943 4.57551 30.7724C4.25975 30.4827 3.83425 30.6158 3.69049 31.0171C3.49474 31.5637 3.55251 32.1143 3.83233 32.6164C4.03257 32.9748 4.43561 32.9654 4.71478 32.7354C5.32769 32.2319 5.84305 31.6544 6.30898 31.0017C5.95408 30.9533 5.59915 30.9042 5.24424 30.8558C5.58696 32.0323 7.36791 31.9502 7.42182 30.6387C7.48857 29.0091 5.44513 28.7025 4.31559 29.081C2.6033 29.6545 3.14948 31.7143 4.11536 32.7469C4.56975 33.2329 5.24683 33.4971 5.85524 33.1442C6.13121 32.9842 6.33207 32.7146 6.47519 32.4262C6.55348 32.2675 6.64977 31.7082 6.8346 31.6443C7.5579 31.3943 7.49243 30.0686 6.64335 30.1654C6.11452 30.2259 5.73457 30.4901 5.45988 30.9694C5.36233 31.1395 5.20639 31.4279 5.18008 31.6336C5.15698 31.678 5.13387 31.7223 5.11077 31.7667C5.16917 31.7526 5.22821 31.7385 5.28661 31.7244C5.2757 31.6484 5.08766 31.4877 5.04145 31.4212C4.93941 31.2739 4.65637 30.9002 4.71349 30.7039C4.76098 30.5412 4.99652 30.5526 5.15311 30.5432C5.38672 30.5291 5.63639 30.5351 5.86872 30.5667C5.89695 30.5707 6.17676 30.6554 6.22169 30.6481C6.27111 30.6393 6.31154 30.3496 6.36801 30.5311C6.20436 30.0047 5.59531 29.9603 5.30329 30.3852C4.90924 30.9586 4.44266 31.4561 3.92025 31.9018C4.21419 31.9415 4.50877 31.9812 4.8027 32.0208C4.64932 31.7748 4.62044 31.5919 4.71157 31.3109C4.41635 31.3923 4.12113 31.4743 3.82655 31.5556C4.00176 31.7082 4.04347 31.9596 3.82269 32.0975C4.05502 32.1613 4.28734 32.2252 4.51967 32.2891C4.279 31.9267 4.22573 31.5422 4.13203 31.12C4.03319 30.679 3.50502 30.7798 3.36768 31.1213Z" fill="black" fill-opacity="0.07"/>
<path d="M8.20317 36.3652C8.21665 36.3518 8.23013 36.3384 8.24297 36.3249C8.1467 36.3834 8.05107 36.4419 7.9548 36.501C7.97149 36.4977 7.9888 36.4936 8.00549 36.4903C7.88933 36.4903 7.77381 36.4903 7.65765 36.4903C7.58513 36.4365 7.51196 36.3834 7.4388 36.3296C7.40863 36.2133 7.37848 36.097 7.34896 35.9807C7.51261 35.7253 7.52095 35.6499 7.37334 35.7528C7.59925 36.1575 7.82451 36.5616 8.05042 36.9663C8.30264 36.7955 8.58696 36.622 8.71788 36.3276C8.89501 35.9289 8.69285 35.3535 8.2006 35.3837C7.8611 35.4046 7.64161 35.5525 7.37334 35.7528C7.07876 35.9726 6.93821 36.3659 7.13267 36.7142C7.31686 37.0442 7.73594 37.1565 8.05042 36.9663C8.50352 36.692 8.86293 36.1501 8.56386 35.6029C8.30073 35.1222 7.65957 34.9824 7.28092 35.3992C6.70203 36.0365 7.59668 36.975 8.20317 36.3652Z" fill="black" fill-opacity="0.07"/>
<path d="M8.17232 35.9556C8.96557 35.7244 9.3898 34.9466 9.6786 34.197C9.94751 33.4992 8.99638 33.0602 8.54649 33.5066C8.28785 33.7627 8.0292 34.0195 7.77121 34.2756C8.16783 34.4477 8.56445 34.6198 8.96108 34.7919C8.93284 34.519 8.90461 34.2461 8.87637 33.9731C8.43418 34.0988 7.99262 34.2239 7.55043 34.3496C7.854 34.8121 7.70832 35.7324 7.06461 35.7983C7.22249 36.197 7.37973 36.5956 7.53761 36.9943C7.81101 36.7112 8.08118 36.4316 8.33469 36.1277C8.87892 35.4763 8.06001 34.6326 7.43427 35.1845C7.14033 35.444 6.86757 35.7217 6.59224 36.0033C6.20332 36.4007 6.47287 37.2565 7.06524 37.1993C8.61322 37.0507 9.7877 35.0185 8.77946 33.5973C8.28657 32.9022 7.36111 33.323 7.4792 34.1714C7.51707 34.443 7.55429 34.7146 7.59215 34.9862C7.66981 35.5462 8.42327 35.6645 8.75699 35.3082C9.00601 35.042 9.25565 34.7758 9.50466 34.5103C9.12729 34.2803 8.74993 34.0498 8.37257 33.8198C8.19672 34.3287 7.83604 34.7166 7.61783 35.2C7.44134 35.5899 7.7327 36.084 8.17232 35.9556Z" fill="black" fill-opacity="0.07"/>
<path d="M4.04084 30.1402C4.10759 30.5348 4.17241 30.9301 4.24236 31.3247C4.32258 31.7765 4.88799 31.8572 5.17037 31.5815C5.64658 31.1157 5.73387 30.3654 5.44058 29.7725C5.26024 29.4081 4.83664 29.3705 4.51768 29.519C3.93044 29.7933 3.7514 30.5086 3.86371 31.1163C3.95613 31.6172 4.52603 31.7543 4.9034 31.5594C5.4226 31.2905 5.6177 30.3889 5.12352 29.9842C4.63898 29.5869 4.01901 29.8424 3.95355 30.4918C3.94392 30.5906 3.93109 30.9053 3.97537 30.6404C3.98692 30.5718 4.04276 30.4259 3.98115 30.51C4.0665 30.4206 4.15187 30.3311 4.23658 30.2424C4.22054 30.2545 4.20449 30.2673 4.18909 30.28C4.53565 30.4279 4.88221 30.5752 5.22813 30.7231C5.1678 30.5463 5.24546 30.7049 5.19861 30.7399C4.9265 30.7029 4.65373 30.6659 4.38162 30.6296C4.43553 30.6888 4.43618 30.7029 4.38612 30.7601C4.69546 30.8454 5.00479 30.9315 5.31413 31.0168C5.2153 30.631 5.11134 30.2471 5.0093 29.8626C4.83217 29.199 3.92981 29.4841 4.04084 30.1402Z" fill="black" fill-opacity="0.07"/>
<path d="M2.49239 36.7408C2.61176 36.9357 2.79724 37.0426 2.92945 37.2255C3.28435 37.7162 4.00509 37.5663 4.04617 36.9088C4.07761 36.4026 3.96721 35.9213 3.69253 35.4984C3.48844 35.1852 3.22917 35.0352 2.8672 35.0521C2.57712 35.0648 2.24724 35.1704 2.06562 35.4171C1.41613 36.2991 2.63102 38.0651 3.61552 37.4393C3.88699 37.2665 4.03653 36.8376 3.8395 36.5431C3.69381 36.3247 3.51604 36.2642 3.35238 36.1196C3.31387 36.0853 3.2773 35.9542 3.26511 36.0443C3.15985 36.1875 3.05525 36.3307 2.94999 36.4739C2.95641 36.4705 3.30617 36.5001 3.05074 36.4813C2.89158 36.412 2.73307 36.3435 2.57391 36.2742C2.71253 36.4376 2.82805 36.6904 2.8473 36.9102C3.18809 36.7623 3.52952 36.6144 3.87031 36.4665C3.58856 36.1828 3.15793 35.922 2.75874 36.0557C2.49625 36.1425 2.3313 36.4759 2.49239 36.7408Z" fill="black" fill-opacity="0.07"/>
</svg>
