<svg width="14" height="16" viewBox="0 0 14 16" fill="none" xmlns="http://www.w3.org/2000/svg">
<path fill-rule="evenodd" clip-rule="evenodd" d="M0.625 7.10355C0.625 3.65365 3.50791 0.865234 6.99508 0.865234C10.4921 0.865234 13.375 3.65365 13.375 7.10355C13.375 8.842 12.7428 10.456 11.7021 11.8239C10.5541 13.3329 9.13912 14.6476 7.54641 15.6796C7.18188 15.918 6.85291 15.936 6.45284 15.6796C4.85105 14.6476 3.43607 13.3329 2.29787 11.8239C1.25649 10.456 0.625 8.842 0.625 7.10355ZM4.89567 7.2978C4.89567 8.45351 5.83874 9.36249 6.99508 9.36249C8.15218 9.36249 9.10433 8.45351 9.10433 7.2978C9.10433 6.15108 8.15218 5.19786 6.99508 5.19786C5.83874 5.19786 4.89567 6.15108 4.89567 7.2978Z" fill="#010101" fill-opacity="0.7"/>
</svg>
