
<svg width="18" height="19" viewBox="0 0 18 19" fill="none" xmlns="http://www.w3.org/2000/svg">
<path fill-rule="evenodd" clip-rule="evenodd" d="M2.625 8.10319C2.625 4.65329 5.50791 1.86487 8.99508 1.86487C12.4921 1.86487 15.375 4.65329 15.375 8.10319C15.375 9.84164 14.7428 11.4556 13.7021 12.8235C12.5541 14.3325 11.1391 15.6472 9.54641 16.6792C9.18188 16.9177 8.85291 16.9357 8.45284 16.6792C6.85105 15.6472 5.43607 14.3325 4.29787 12.8235C3.25649 11.4556 2.625 9.84164 2.625 8.10319ZM6.89567 8.29743C6.89567 9.45315 7.83874 10.3621 8.99508 10.3621C10.1522 10.3621 11.1043 9.45315 11.1043 8.29743C11.1043 7.15071 10.1522 6.19749 8.99508 6.19749C7.83874 6.19749 6.89567 7.15071 6.89567 8.29743Z" fill="#010101" fill-opacity="0.7"/>

</svg>
