<svg width="16" height="15" viewBox="0 0 16 15" fill="none" xmlns="http://www.w3.org/2000/svg">
<path fill-rule="evenodd" clip-rule="evenodd" d="M11.7047 0.615234C12.7105 0.615234 13.678 1.01273 14.3897 1.72598C15.1022 2.43773 15.5005 3.39773 15.5005 4.40273V10.3277C15.5005 12.4202 13.798 14.1152 11.7047 14.1152H4.29549C2.20224 14.1152 0.500488 12.4202 0.500488 10.3277V4.40273C0.500488 2.31023 2.19474 0.615234 4.29549 0.615234H11.7047ZM12.898 5.52023L12.958 5.46023C13.1372 5.24273 13.1372 4.92773 12.9497 4.71023C12.8455 4.59848 12.7022 4.53023 12.553 4.51523C12.3955 4.50698 12.2455 4.56023 12.1322 4.66523L8.75049 7.36523C8.31549 7.72598 7.69224 7.72598 7.25049 7.36523L3.87549 4.66523C3.64224 4.49273 3.31974 4.51523 3.12549 4.71773C2.92299 4.92023 2.90049 5.24273 3.07224 5.46773L3.17049 5.56523L6.58299 8.22773C7.00299 8.55773 7.51224 8.73773 8.04549 8.73773C8.57724 8.73773 9.09549 8.55773 9.51474 8.22773L12.898 5.52023Z" fill="#010101" fill-opacity="0.7"/>
</svg>
