
<svg width="18" height="19" viewBox="0 0 18 19" fill="none" xmlns="http://www.w3.org/2000/svg">
<path fill-rule="evenodd" clip-rule="evenodd" d="M12.7045 2.61487C13.7102 2.61487 14.6777 3.01237 15.3895 3.72562C16.102 4.43737 16.5002 5.39737 16.5002 6.40237V12.3274C16.5002 14.4199 14.7977 16.1149 12.7045 16.1149H5.29524C3.20199 16.1149 1.50024 14.4199 1.50024 12.3274V6.40237C1.50024 4.30987 3.19449 2.61487 5.29524 2.61487H12.7045ZM13.8977 7.51987L13.9577 7.45987C14.137 7.24237 14.137 6.92737 13.9495 6.70987C13.8452 6.59812 13.702 6.52987 13.5527 6.51487C13.3952 6.50662 13.2452 6.55987 13.132 6.66487L9.75024 9.36487C9.31524 9.72562 8.69199 9.72562 8.25024 9.36487L4.87524 6.66487C4.64199 6.49237 4.31949 6.51487 4.12524 6.71737C3.92274 6.91987 3.90024 7.24237 4.07199 7.46737L4.17024 7.56487L7.58274 10.2274C8.00274 10.5574 8.51199 10.7374 9.04524 10.7374C9.57699 10.7374 10.0952 10.5574 10.5145 10.2274L13.8977 7.51987Z" fill="#010101" fill-opacity="0.7"/>

</svg>
