<svg width="44" height="44" viewBox="0 0 44 44" fill="none" xmlns="http://www.w3.org/2000/svg">
<path d="M0 16C0 8.45753 0 4.68629 2.34315 2.34315C4.68629 0 8.45753 0 16 0H28C35.5425 0 39.3137 0 41.6569 2.34315C44 4.68629 44 8.45753 44 16V44H0V16Z" fill="#EBF4FF"/>
<path d="M22.3092 19.3999H26.6842" stroke="#1A82FF" stroke-width="1.5" stroke-linecap="round" stroke-linejoin="round"/>
<path d="M17.3158 19.3999L17.9408 20.0249L19.8158 18.1499" stroke="#1A82FF" stroke-width="1.5" stroke-linecap="round" stroke-linejoin="round"/>
<path d="M22.3092 25.2332H26.6842" stroke="#1A82FF" stroke-width="1.5" stroke-linecap="round" stroke-linejoin="round"/>
<path d="M17.3158 25.2332L17.9408 25.8582L19.8158 23.9832" stroke="#1A82FF" stroke-width="1.5" stroke-linecap="round" stroke-linejoin="round"/>
<path d="M19.5 30.3333H24.5C28.6667 30.3333 30.3333 28.6667 30.3333 24.5V19.5C30.3333 15.3333 28.6667 13.6667 24.5 13.6667H19.5C15.3333 13.6667 13.6667 15.3333 13.6667 19.5V24.5C13.6667 28.6667 15.3333 30.3333 19.5 30.3333Z" stroke="#1A82FF" stroke-width="1.5" stroke-linecap="round" stroke-linejoin="round"/>
</svg>
