<svg width="104" height="120" viewBox="0 0 104 120" fill="none" xmlns="http://www.w3.org/2000/svg">
<path d="M64.1655 108.793C64.8402 107.642 64.2489 106.285 63.8796 105.095C63.6388 104.319 63.3725 103.523 63.039 102.756C67.7712 100.851 74.3157 99.9462 78.6157 97.0097C78.7399 97.2379 78.9858 97.4053 79.2572 97.4424C79.2921 97.4471 79.321 97.4408 79.3542 97.4432C79.4742 97.4882 79.6043 97.5537 79.7362 97.6272C79.8434 97.6919 79.9523 97.7535 80.0612 97.8159C80.2033 97.9012 80.3377 97.9817 80.4475 98.0362C80.4773 98.0512 80.5071 98.0654 80.5368 98.0804C80.8814 98.2667 81.2277 98.446 81.5646 98.6252C82.8519 99.309 84.1613 99.9446 85.4979 100.54C86.6942 101.073 87.716 99.4495 86.5232 98.8597C84.979 98.0962 83.4347 97.3334 81.8905 96.5699C81.4098 96.3322 80.8687 95.969 80.3225 95.7724C80.6007 95.6034 80.7946 95.3192 80.7904 94.9204C80.7615 92.4774 80.7989 90.0376 80.867 87.5954C80.9087 86.0833 81.243 84.4014 80.8363 82.9241C83.838 81.795 86.5921 79.1964 89.1352 77.3938C90.1289 76.6895 89.2807 75.3219 88.1304 75.8359C86.4994 76.5647 84.9075 77.3574 83.376 78.2544C82.1602 78.9666 80.6721 79.6102 80.0672 80.8617C80.0127 80.9738 79.9957 81.082 80.0017 81.183C77.8576 79.1467 74.7607 77.7878 72.187 76.2686C70.8087 75.4545 69.4388 74.6207 68.0316 73.8509C67.2531 73.4245 66.1572 73.22 65.3456 72.8433C65.2835 72.7099 65.155 72.6072 64.9942 72.5985C64.7925 72.3806 64.4803 72.2417 64.0745 72.308C62.7489 72.5251 61.5612 72.9965 60.3964 73.5184C57.5062 74.4604 54.6134 75.4103 51.7938 76.5023C51.719 76.3902 51.6169 76.286 51.4773 76.1967C50.1126 75.325 48.753 74.4478 47.3781 73.5895C46.5111 72.9539 45.662 72.2882 44.8052 71.6029C45.9938 70.0537 47.1909 68.499 48.2732 66.8835C48.4467 66.6245 48.6441 66.3702 48.8296 66.1144C49.0278 66.0552 49.2091 65.9581 49.3503 65.8167C54.1387 65.1645 59.0138 63.3113 63.5402 62.0456C63.5419 62.0448 63.5427 62.044 63.5452 62.0432C63.7724 62.0938 64.02 62.0653 64.2574 61.9177C64.2889 61.8979 64.3135 61.8782 64.3433 61.8577C64.5186 61.969 64.7415 62.029 64.9942 61.9895C67.2003 61.6429 69.4457 58.7364 70.8708 57.2922C72.7647 55.3727 74.6841 53.4888 76.6163 51.6087C77.9606 51.7193 79.3661 51.3284 80.6815 51.0931C81.4166 50.9613 82.1508 50.8278 82.8851 50.6952C84.0167 50.5775 85.1397 50.4109 86.2509 50.1661C86.5087 50.2269 86.7588 50.1646 86.9733 49.9932C87.0149 49.96 87.0566 49.9261 87.0983 49.8929C87.4582 49.6039 87.3867 49.0883 87.1196 48.7733C86.9996 48.448 86.6899 48.2048 86.1829 48.2435C86.1726 48.2443 86.1624 48.245 86.1522 48.2458C85.5218 48.1195 84.7764 48.23 84.0533 48.3998C82.9702 48.4796 81.8871 48.5617 80.8032 48.6383C79.8154 48.7077 78.7969 48.7125 77.804 48.8254C77.8049 48.8175 77.8083 48.8112 77.8091 48.8025C77.9087 48.463 77.9989 48.1203 78.0797 47.7768C78.2933 46.9185 78.4804 46.0555 78.6319 45.1861C78.8905 43.7033 79.0709 42.2031 79.1645 40.7036C79.2632 39.1213 79.2657 37.5342 79.1594 35.9526C79.15 35.8144 79.0734 35.3604 78.9739 34.7769C79.9983 33.4267 80.7708 31.8743 81.6812 30.4681C82.8477 28.6654 84.0745 26.8983 85.3397 25.1541C85.6366 24.7451 85.4265 24.0542 84.9483 23.8449C83.4543 23.1904 82.3533 24.7459 81.357 25.6002C80.0263 26.7404 78.614 27.8348 77.4671 29.1345C76.9813 29.0626 76.4946 28.9931 76.008 28.9284C74.2978 28.4965 72.4048 28.3575 70.5738 28.2714C69.301 28.1246 68.0291 27.973 66.7605 27.7945C64.9644 27.5418 63.1862 27.2228 61.4276 26.7957C59.7889 26.3969 58.2813 25.6776 56.5831 25.8616C56.5516 25.8647 56.5226 25.8805 56.4929 25.8908C55.9585 24.8596 55.0746 23.845 54.6543 22.9495C53.4801 20.4465 53.4359 17.7019 52.3613 15.2344C52.1478 14.7449 51.3318 14.6406 51.171 15.2407C50.9175 16.1859 50.9226 17.1973 51.08 18.2167C50.8222 21.5149 52.5153 25.2157 53.829 28.2612C51.776 29.9762 50.0633 32.3931 48.4255 34.2392C46.8106 36.0592 45.2528 37.929 43.7051 39.8051C43.1411 40.4107 42.4587 41.111 42.0231 41.8446C41.6879 42.252 41.3535 42.6594 41.0183 43.0653C40.8592 43.258 40.7988 43.4656 40.8056 43.6662C40.6814 43.757 40.5954 43.8904 40.6039 44.0397C40.7775 47.198 42.3796 50.4464 43.3929 53.4509C44.4003 56.4387 45.4595 59.4099 46.4907 62.3899C46.5613 62.6694 46.6413 62.9457 46.7102 63.226C45.8024 64.2012 45.1481 65.4701 44.4794 66.5502C43.706 67.801 42.9309 69.0509 42.1626 70.3048C41.8087 70.0568 41.4496 69.8144 41.0991 69.5626C38.3569 67.5957 35.7143 65.114 32.6301 63.639C31.5845 63.1392 30.6962 64.3267 31.4347 65.1179C33.7949 67.647 37.2169 69.6463 40.1249 71.6273C40.4704 71.8626 40.8473 72.1366 41.2386 72.4225C39.9258 73.9725 38.4556 75.6006 37.4576 77.3156C33.7804 77.9118 30.0249 77.8841 26.3724 78.6445C26.2865 78.6627 26.209 78.6911 26.135 78.7234C26.135 78.7234 26.1325 78.7234 26.1308 78.7242C26.1197 78.7282 26.1103 78.7345 26.0993 78.7384C25.5811 78.1684 24.863 77.6741 24.3789 77.2485C23.215 76.2275 22.1643 75.0084 20.9374 74.0625C20.6277 73.824 20.1929 73.6479 19.7845 73.7885C19.7429 73.8027 19.7012 73.8169 19.6595 73.8311C18.7457 74.1454 18.5253 75.2611 19.4034 75.7601C19.8832 76.0325 20.3937 76.7321 20.8429 77.1443C21.5236 77.768 22.2255 78.3784 22.9521 78.9556C23.3197 79.2477 23.7553 79.6315 24.2292 79.9592C23.4694 80.6816 22.8219 81.5494 22.1566 82.2885C20.894 83.6908 19.0852 85.1839 18.3118 86.8689C18.1986 87.1145 18.2088 87.3774 18.2905 87.6135C18.1476 87.7327 18.0438 87.9001 18.0251 88.077C17.8302 89.886 19.0307 91.736 19.5846 93.4707C20.1921 95.3729 20.6651 97.3074 21.1288 99.2435C20.997 99.8309 21.3654 100.49 22.2051 100.499C23.9552 100.518 25.7538 100.065 27.4529 99.7014C28.6066 99.4551 29.9228 99.3106 30.9753 98.7847C31.3803 98.941 31.8797 98.915 32.3204 98.5723C35.0303 96.4696 37.3496 93.6508 39.6672 91.1801C39.9845 90.8422 40.1036 90.3747 39.9275 89.9602C40.7664 88.6913 39.9837 86.1891 39.8476 84.8941C39.651 83.0181 39.5455 80.9233 38.8062 79.1238C38.8368 79.0922 38.8691 79.0622 38.8938 79.0275C40.5486 77.603 41.9193 75.6503 43.2032 73.813C44.2854 74.5339 45.4374 75.1908 46.5826 75.524C47.8061 76.357 49.1019 77.1024 50.3993 77.7633C50.3934 77.7751 50.3823 77.7846 50.3772 77.7973C49.1606 80.6588 49.2405 84.2198 48.9947 87.2692C48.7522 90.2689 47.9584 93.8947 48.9947 96.772C49.1112 97.095 49.5239 97.3169 49.8838 97.2876C49.9306 97.3382 49.9799 97.3871 50.0344 97.425C50.8639 97.9951 51.9325 98.2786 52.8531 98.7358C54.0621 99.3358 55.2873 99.9028 56.5278 100.446C57.8133 101.009 59.5056 102.016 61.0609 102.118C61.3689 103.27 61.7985 104.402 62.1227 105.548C62.4503 106.706 62.4792 108.068 63.5019 108.882C63.7078 109.04 64.0294 109.025 64.1655 108.793ZM61.1221 60.209C58.1673 60.5833 55.2881 61.5237 52.4404 62.3275C51.5556 62.577 50.4078 62.7697 49.3018 63.05C49.2975 63.046 49.2924 63.0421 49.2882 63.0381C48.628 60.2272 47.8478 57.4478 46.8719 54.7126C46.4448 53.5164 42.8909 46.4669 43.4737 44.4139C43.6379 44.2181 43.8013 44.0215 43.9655 43.8257C44.1756 43.5746 44.2046 43.2501 44.0497 43.0116C44.3892 42.5923 44.7287 42.1723 45.0682 41.753C45.6799 41.0155 46.3061 40.2891 46.9382 39.5666C48.0766 38.2661 49.2439 36.9878 50.4547 35.7449C52.5842 33.5586 55.0746 31.628 57.1514 29.4069C57.1803 29.3998 57.2101 29.3934 57.239 29.3863C57.3803 29.3532 57.5139 29.2497 57.6032 29.1242C57.6049 29.125 57.6066 29.1258 57.6091 29.1266C57.6517 29.2545 57.7563 29.3619 57.958 29.3958C58.317 29.4558 58.6778 29.5087 59.0394 29.5585C59.4086 29.6343 59.783 29.6816 60.1607 29.699C62.6732 29.9872 65.2163 30.108 67.727 30.3733C70.5585 30.6734 73.5415 31.369 76.4436 31.5482C76.4759 32.3118 76.6929 33.103 76.7618 33.8483C76.9711 36.1232 77.0043 38.428 76.8231 40.706C76.6342 43.07 76.2275 45.4159 75.6098 47.716C75.4048 48.4788 75.1087 49.0844 75.0491 49.6687C70.2582 52.0398 66.6303 56.2752 62.8893 59.8703C62.4094 60.0053 61.9193 60.1356 61.4259 60.2651C61.3391 60.2208 61.2396 60.194 61.1221 60.209ZM26.3911 80.8506C28.3199 81.1886 30.0981 80.9438 32.0056 80.5853C33.4375 80.3161 35.0328 80.1431 36.4562 79.6757C36.4707 79.6741 36.4851 79.6725 36.4996 79.671C36.5923 81.2699 37.0059 82.8909 37.1658 84.4764C37.3343 86.1472 37.5121 87.8227 37.6567 89.4951C37.6576 89.5054 37.6627 89.5133 37.6635 89.5235C36.3329 90.4008 35.3723 91.7794 34.3266 92.9228C33.1976 94.1577 32.0567 95.3823 30.8987 96.5944C29.6233 96.4941 28.3709 97.0152 27.1117 97.2955C25.8423 97.5782 24.5074 97.7574 23.2278 98.0551C22.4918 94.8115 21.7567 90.8272 19.6527 88.1773C19.679 88.1646 19.7037 88.1623 19.7301 88.1473C21.5057 87.1066 22.822 85.1121 24.0956 83.5795C24.818 82.7101 25.7002 81.8163 26.2711 80.819C26.3094 80.8293 26.3477 80.8427 26.3911 80.8506ZM61.8819 100.714C61.7135 100.49 61.4701 100.437 61.2583 100.49C60.0884 99.6556 58.4012 99.1598 57.2305 98.5976C55.2992 97.6698 53.3287 96.3346 51.2238 95.8079C51.0791 95.7716 50.9422 95.7716 50.8103 95.789C51.5343 93.2694 51.2757 90.4142 51.4467 87.8464C51.6475 84.8294 52.3154 81.5399 51.9368 78.5103C51.9819 78.4992 52.0261 78.4889 52.0695 78.4692C53.9711 77.5999 55.9577 77.288 57.8933 76.5513C58.9798 76.1375 60.0042 75.6267 61.0447 75.16C62.2214 74.7652 63.3964 74.3712 64.573 73.9874C64.6011 73.9788 64.6164 73.9614 64.6419 73.9511C65.5685 75.0392 67.9882 76.0909 68.6144 76.4739C72.01 78.5489 75.4626 80.5395 78.8106 82.6801C78.9212 82.7504 79.0309 82.7922 79.1398 82.8151C78.5825 84.144 78.6787 85.7003 78.6004 87.1397C78.4711 89.5164 78.4532 91.8986 78.4685 94.2793C78.2456 94.5043 78.1503 94.8312 78.3656 95.1155C78.3783 95.132 78.3911 95.1486 78.403 95.1652C75.626 95.9611 72.957 97.23 70.1995 98.097C67.7389 98.8708 65.2937 99.6422 62.9037 100.576C62.6562 100.516 62.3677 100.558 62.1108 100.747C62.0649 100.781 62.0189 100.814 61.9738 100.848C61.9432 100.804 61.9143 100.758 61.8819 100.714Z" fill="black" fill-opacity="0.07"/>
<path d="M49.4095 46.2396C49.4469 46.1986 49.4844 46.1575 49.5218 46.1172C49.703 45.9191 49.7183 45.7003 49.6026 45.4713C49.5686 45.4027 49.5329 45.3545 49.4954 45.3126C50.1744 44.6281 51.0635 43.1981 51.1962 43.0125C52.0155 41.8668 52.9012 40.7677 53.832 39.6986C55.4307 37.8636 57.3118 36.2828 58.9522 34.4912C59.3368 34.0712 58.8237 33.355 58.2724 33.6937C55.4553 35.4206 53.1275 38.0247 51.1315 40.5214C50.0867 41.8282 47.3573 44.3541 48.2634 46.1157C48.46 46.4955 49.1245 46.5515 49.4095 46.2396Z" fill="black" fill-opacity="0.07"/>
<path d="M61.0696 56.3962C64.2576 53.9303 67.2925 50.0779 69.3081 46.7323C69.6858 46.1054 68.7533 45.6253 68.3177 46.0446L68.316 46.0422C66.7956 47.6751 65.4411 49.4462 63.9599 51.1122C62.6011 52.6401 61.0441 54.0487 59.8198 55.669C59.2634 56.4049 60.6715 57.0413 61.0696 56.3962Z" fill="black" fill-opacity="0.07"/>
<path d="M73.0411 35.9619C71.2783 34.412 67.6827 34.4657 65.4179 34.5975C64.7823 34.6346 64.7823 35.4834 65.4196 35.515C66.7698 35.5814 68.1115 35.7385 69.432 36.0117C70.5236 36.2375 71.6211 36.6923 72.7493 36.6315C73.1016 36.6118 73.3194 36.2067 73.0411 35.9619Z" fill="black" fill-opacity="0.07"/>
<path d="M87.9503 18.6901C88.8309 17.347 89.8817 14.0812 88.4174 12.8076C88.1936 12.6125 87.792 12.4665 87.4866 12.5865C87.439 12.6054 87.3922 12.6236 87.3445 12.6425C87.2084 12.6962 87.0697 12.7815 86.9566 12.8881C83.0445 11.7614 78.85 18.3679 82.7118 20.3774C84.6891 21.4055 86.8664 20.3435 87.9503 18.6901ZM84.5947 19.1188C82.5357 19.3336 82.9518 17.3588 83.5448 16.2621C84.1191 15.1993 85.0227 14.2691 86.2904 14.2754C86.2802 14.3544 86.2699 14.4326 86.2597 14.5115C86.1704 14.9442 86.7192 15.2956 87.0723 15.1179C87.1182 16.8377 86.3908 18.9317 84.5947 19.1188Z" fill="black" fill-opacity="0.07"/>
<path d="M92.1661 25.8352C93.1156 25.4412 93.8039 24.6216 94.4667 23.8557C94.4761 23.8581 94.4837 23.8636 94.4939 23.866C94.8402 23.9591 95.0759 23.6536 95.0257 23.3669C95.0189 23.3306 95.0061 23.2951 94.9968 23.2588C95.8876 22.2923 96.7486 21.3021 97.619 20.3191C98.2435 19.614 97.1918 18.6222 96.5069 19.3147C95.6876 20.143 94.8666 20.9713 94.0575 21.8091C93.3155 21.1261 92.2725 20.5891 91.3187 20.2954C91.3672 20.2314 91.4072 20.1793 91.4284 20.1541C92.184 19.2626 93.0135 18.443 93.9213 17.6826C94.6666 17.0581 93.5734 16.1374 92.8238 16.6925C90.7657 18.2172 88.7024 20.1928 87.7972 22.5339C87.6874 22.8182 87.8763 23.2359 88.1741 23.3638C88.6667 23.5762 89.0768 23.5983 89.4639 23.2082C89.606 23.0653 89.566 22.8545 89.3933 22.7518C89.4461 22.7826 89.9234 22.166 90.4049 21.5224C91.0481 21.8596 91.7024 22.1683 92.3065 22.5821C92.5081 22.7203 92.7004 22.8624 92.8927 23.0021C92.2299 23.6693 91.5654 24.3681 91.3008 25.2304C91.1477 25.7302 91.7305 26.016 92.1661 25.8352Z" fill="black" fill-opacity="0.07"/>
<path d="M92.8011 55.1684C94.5248 54.149 94.6031 52.2493 93.5591 51.0593C95.6198 50.6227 98.1076 49.7889 98.0404 47.9018C97.9791 46.1907 96.5055 45.6254 94.9562 45.529C94.4542 45.2061 93.8178 45.0284 93.235 45.1303C92.328 45.2882 92.0013 46.1907 91.5231 46.835C90.2444 48.5603 88.7555 50.0731 87.8425 51.9784C87.7753 52.0108 87.7157 52.059 87.6724 52.1293C86.0524 54.7428 90.771 56.3694 92.8011 55.1684ZM91.6337 49.9902C91.6559 49.9523 91.6771 49.9113 91.6993 49.875C92.1706 49.0933 92.6615 48.321 93.155 47.5504C93.2282 47.4564 93.3005 47.3601 93.3805 47.2756C93.4026 47.2519 93.4273 47.2393 93.4502 47.2188C93.4834 47.2424 93.5149 47.2709 93.5532 47.2843C94.0169 47.4509 94.4253 47.3775 94.8166 47.7178C95.1918 48.0431 95.5849 48.4624 95.6258 48.9598C95.4633 49.1027 95.1663 49.1912 94.7281 49.2227C93.7191 49.5623 92.6845 49.8015 91.6337 49.9902ZM90.1312 54.0606C90.0504 54.0298 89.9798 53.9951 89.9091 53.9603C89.927 53.9358 89.9457 53.9145 89.9619 53.8861C90.2214 53.4266 90.4834 52.9702 90.7829 52.5319C91.0246 52.1798 91.3479 51.8 91.3589 51.3776C91.4066 51.3926 91.4491 51.4162 91.501 51.4226C92.3901 51.5244 92.9848 52.697 92.6071 53.4179C92.1545 54.2809 90.9191 54.3646 90.1312 54.0606Z" fill="black" fill-opacity="0.07"/>
<path d="M97.8584 56.5472C99.3235 55.5617 100.702 56.116 102.323 56.2984C102.494 56.3174 102.678 56.2337 102.813 56.1184C102.818 56.1153 102.822 56.1121 102.826 56.1089C102.881 56.0608 102.928 56.0087 102.959 55.9542C102.989 55.9029 103.012 55.8492 103.03 55.7931C103.126 55.5017 102.955 55.1788 102.682 55.028C101.609 54.4342 100.097 54.2147 98.8317 54.5479C99.0478 54.1302 99.2631 53.7133 99.4996 53.3035C99.965 52.4965 98.6751 51.8191 98.1681 52.6039C97.5359 53.5822 96.9327 54.5842 96.435 55.6289C96.0547 56.4279 95.3902 57.4363 95.8811 58.2851C95.9738 58.4454 96.2503 58.5677 96.4435 58.4935C97.2883 58.169 97.5461 57.3068 97.8584 56.5472Z" fill="black" fill-opacity="0.07"/>
<path d="M50.1583 8.47699C51.808 6.72172 50.2383 5.45599 48.4626 4.80537C50.0443 4.27397 51.7519 3.40226 51.8923 2.05047C52.0854 0.18781 49.7108 -0.0822323 48.2874 0.0180463C48.0661 0.0338383 47.9258 0.157016 47.8577 0.307828C47.7667 0.333885 47.6799 0.380473 47.6127 0.468908C46.0914 2.50212 44.195 5.18121 44.1482 7.73714C44.1439 7.9527 44.4511 8.00718 44.5659 7.839C45.1598 6.9657 45.5214 5.99687 45.9391 5.04698C46.0276 5.20332 46.1926 5.32887 46.4113 5.34861C46.8529 5.36361 47.2851 5.42283 47.7096 5.52627C48.8293 5.6834 48.9518 6.59538 48.0763 8.26064C47.6365 8.60411 46.5611 8.53779 46.0565 8.53384C44.5055 8.52041 43.2556 7.90137 41.8935 7.29259C41.3583 7.05335 40.87 7.64554 41.2741 8.05929C43.185 10.0175 48.1078 10.6586 50.1583 8.47699ZM46.2913 4.28502C46.8801 3.118 47.5769 2.00704 48.3495 0.937137C49.3824 0.745265 50.0766 1.27824 50.428 2.54633C50.0332 2.8527 49.6104 3.11721 49.1586 3.33988C48.2389 3.8239 47.2842 4.11447 46.2658 4.34188C46.2743 4.32292 46.2811 4.30397 46.2913 4.28502Z" fill="black" fill-opacity="0.07"/>
<path d="M52.9402 11.1153C53.4116 10.4102 53.609 9.60169 53.9331 8.83499C53.9944 9.02607 54.1867 9.18715 54.4564 9.13345C55.331 8.95816 56.2099 8.86657 57.105 8.88157C57.8298 8.89421 58.5947 9.09713 59.2992 8.91711C59.5604 8.84999 59.5544 8.55863 59.3639 8.42913C58.7164 7.98854 57.715 8.02249 56.9399 8.03118C56.0227 8.04144 55.1158 8.16146 54.2241 8.35412C54.1901 8.36123 54.168 8.37781 54.1399 8.38966C54.5185 7.62217 54.9941 6.89732 55.5565 6.23485C56.0185 5.68924 55.194 4.92017 54.7108 5.47131C53.4533 6.90443 51.8801 9.10266 52.3166 11.0443C52.3804 11.3254 52.7947 11.3333 52.9402 11.1153Z" fill="black" fill-opacity="0.07"/>
<path d="M57.2144 82.2652C59.9039 81.2403 62.7065 80.0685 65.1959 78.6725C65.7864 78.3416 65.5184 77.4928 64.8403 77.481C63.5071 77.4581 62.2062 78.1979 61.015 78.7025C59.5006 79.3444 57.9623 79.9753 56.493 80.7017C55.5911 81.1479 56.2394 82.6371 57.2144 82.2652Z" fill="black" fill-opacity="0.07"/>
<path d="M74.1099 93.5529C75.2313 92.374 75.1156 90.4403 75.1453 88.9321C75.1811 87.1034 75.0832 85.0789 74.457 83.3284C74.3949 82.4385 72.6924 82.4598 72.7392 83.4539C72.8201 85.1831 73.134 86.8697 73.1025 88.61C73.0745 90.1252 72.4074 91.8576 72.9851 93.2852C73.1519 93.6974 73.7466 93.935 74.1099 93.5529Z" fill="black" fill-opacity="0.07"/>
<path d="M61.358 97.4142C60.6297 96.6507 59.2863 96.2401 58.3121 95.7861C57.1822 95.2594 56.0387 94.7572 54.9012 94.244C54.3031 93.974 53.7977 94.7786 54.3881 95.0849C55.5478 95.6858 56.7007 96.3009 57.8714 96.8836C58.8507 97.3716 59.8972 98.0878 61.0109 98.2094C61.4856 98.2623 61.6132 97.6819 61.358 97.4142Z" fill="black" fill-opacity="0.07"/>
<path d="M97.3588 78.6018C98.0735 78.1336 98.6869 77.3211 98.1705 76.5141C97.8531 76.0182 97.3716 75.9527 96.8798 75.9267C98.179 75.2342 99.582 74.2069 99.2476 73.1496C98.8529 71.8997 96.9113 72.06 95.4938 72.4509C95.5568 72.2764 95.6087 72.0995 95.6751 71.9258C95.9048 71.3257 94.8183 70.9048 94.5529 71.5018C94.0219 72.6917 93.5251 73.9013 93.1737 75.1489C92.995 75.7845 92.6504 76.6744 92.7049 77.4301C92.4156 77.1142 91.803 77.2098 91.6516 77.6511C91.2891 78.7068 92.0778 79.5509 93.2009 79.7467C94.5341 79.9789 96.2936 79.2998 97.3588 78.6018ZM93.4213 78.3033C94.2474 77.7475 94.2534 76.5473 94.4848 75.6843C94.66 75.0281 94.8481 74.3775 95.0523 73.7308C95.8512 73.4386 97.9637 72.9507 97.4847 73.8966C97.1274 74.6017 95.6266 75.1836 94.9093 75.4482C94.4516 75.6171 94.2117 76.1493 94.6175 76.507C95.1612 76.9855 95.778 76.7778 96.3174 77.0787C96.6978 77.0163 96.7565 77.1774 96.4961 77.5643C96.1294 77.7656 95.7465 77.9354 95.3466 78.0736C94.8276 78.2504 94.0032 78.5252 93.4213 78.3033Z" fill="black" fill-opacity="0.07"/>
<path d="M101.216 80.9685C100.674 79.5614 101.853 78.6179 103.187 78.2326C103.554 78.1267 103.503 77.7043 103.183 77.5851C102.194 77.2171 101.337 77.4817 100.724 78.0423C100.612 77.803 100.491 77.5685 100.339 77.3482C100.117 77.0261 99.5522 77.0774 99.4467 77.4651C99.3284 77.8993 99.3531 78.3241 99.4918 78.7545C99.5879 79.0529 99.6798 79.383 99.81 79.6815C99.6968 80.2271 99.7232 80.7964 99.9359 81.2978C100.243 82.0234 101.507 81.7241 101.216 80.9685Z" fill="black" fill-opacity="0.07"/>
<path d="M95.4299 105.779C96.6338 104.547 96.8942 102.353 95.8085 101.054C95.6545 99.7011 93.8134 98.8136 92.3134 99.3734C89.9813 100.244 88.141 103.346 89.3772 105.55C90.6168 107.761 93.8185 107.427 95.4299 105.779ZM91.0456 105.434C89.96 104.518 90.7462 102.985 91.4217 102.099C91.8573 101.527 92.401 100.926 93.1625 100.765C93.2731 100.742 93.3914 100.737 93.5088 100.74C93.5079 100.89 93.5581 101.043 93.6883 101.166C93.9444 101.408 94.186 101.659 94.3911 101.918C94.3894 102.108 94.5119 102.259 94.6846 102.352C95.0351 102.959 95.1364 103.629 94.6948 104.408C94.0865 105.485 92.2053 106.414 91.0456 105.434Z" fill="black" fill-opacity="0.07"/>
<path d="M103.386 104.918C103.544 104.158 102.311 103.841 102.122 104.608C101.877 105.599 101.466 106.524 100.853 107.369C100.679 107.608 100.483 107.837 100.284 108.065C100.264 108.043 100.251 108.02 100.224 108C99.8175 107.685 99.3879 107.42 98.937 107.193C98.9829 107.078 99.0297 106.965 99.0816 106.854C99.6244 105.69 100.358 104.623 101.239 103.656C101.808 103.032 100.843 102.139 100.249 102.762C99.2228 103.84 98.3533 105.028 97.7211 106.345C97.676 106.439 97.6318 106.536 97.5867 106.632C97.5459 106.618 97.5067 106.601 97.465 106.587C96.6414 106.312 96.245 107.628 97.1145 107.817H97.1154C96.8848 108.552 96.7886 109.313 97.0464 110.037C97.1409 110.302 97.4761 110.312 97.6412 110.105C98.0827 109.547 98.3312 108.886 98.5634 108.219C98.9523 108.346 99.3385 108.481 99.7189 108.626C99.7418 108.635 99.7656 108.635 99.7886 108.639C99.5113 108.965 99.2475 109.299 99.0527 109.669C98.9216 109.918 99.1437 110.177 99.4338 110.121C101.737 109.677 102.993 106.81 103.386 104.918Z" fill="black" fill-opacity="0.07"/>
<path d="M70.2725 114.737C70.7464 113.789 70.0308 112.97 69.1247 112.375C70.207 112.211 71.2866 111.837 71.45 111.014C71.6925 109.794 69.5476 109.26 68.6211 109.102C68.2612 109.041 68.0323 109.326 68.0442 109.583C67.9353 109.261 67.5609 109.035 67.1747 109.254C66.1486 109.836 65.3658 111.04 64.7686 111.986C64.5457 112.339 63.951 113.189 63.8863 113.843C63.7604 113.876 63.6515 113.962 63.6132 114.099C63.506 114.486 63.5247 114.636 63.6081 115.033C63.6506 115.235 63.8573 115.401 64.0632 115.451C65.3607 115.767 66.6769 115.855 68.0093 115.682C68.7563 115.585 69.9024 115.476 70.2725 114.737ZM68.0187 110.021C68.0731 109.913 68.0842 109.801 68.0697 109.694C68.1114 109.81 68.2059 109.907 68.3811 109.942C68.9716 110.059 70.6834 110.289 69.7739 111.147C69.283 111.611 67.7907 111.505 67.1883 111.487C67.0377 111.483 66.9177 111.537 66.8284 111.618C66.8437 111.597 66.8565 111.573 66.8726 111.552C67.2453 111.04 67.7379 110.579 68.0187 110.021ZM64.9711 114.407C65.3565 114.067 65.656 113.421 65.8151 113.153C66.0865 112.698 66.386 112.258 66.6931 111.822C66.6165 112.038 66.6752 112.299 66.922 112.427C67.2938 112.62 67.6852 112.808 68.0374 113.033C68.5079 113.283 68.8499 113.642 69.0635 114.111C68.9639 114.257 68.8202 114.329 68.6313 114.328C67.9302 114.842 66.0831 114.606 64.9711 114.407Z" fill="black" fill-opacity="0.07"/>
<path d="M72.6997 117.389C72.7584 117.244 72.7984 117.095 72.8443 116.947C73.462 116.718 74.0933 116.596 74.7612 116.632C75.3917 116.665 75.9319 116.841 76.5683 116.775C76.7257 116.759 76.8729 116.601 76.764 116.454C75.9864 115.411 74.3307 115.536 73.0774 115.909C73.1421 115.382 73.1421 114.846 73.0834 114.313C73.0281 113.812 72.2692 113.802 72.2326 114.314C72.1645 115.27 71.8821 116.183 71.4252 117.041C71.1112 117.631 70.3165 118.331 70.5386 119.021C70.5939 119.192 70.7462 119.281 70.9283 119.296C71.8701 119.375 72.4283 118.055 72.6997 117.389Z" fill="black" fill-opacity="0.07"/>
<path d="M27.6135 62.1459C29.3909 60.4736 29.3679 57.4423 27.7505 55.6926C27.2451 55.1454 26.4088 55.5631 26.2642 56.1505C26.2114 56.1245 26.1595 56.0976 26.1 56.0763C25.1998 55.7581 23.8989 56.2879 23.1 56.6646C20.8419 57.7289 20.7892 59.9303 22.0909 61.7701C23.3433 63.5427 26.0549 63.613 27.6135 62.1459ZM24.309 61.4329C23.3595 61.1076 22.5197 59.4558 23.0038 58.6188C23.2063 58.269 25.9136 56.7893 25.9553 57.3586C25.9783 57.6705 26.425 57.8916 26.6726 57.695C26.9397 58.4262 27.1439 59.1486 26.8623 59.9793C26.5322 60.9529 25.4695 61.8309 24.309 61.4329Z" fill="black" fill-opacity="0.07"/>
<path d="M25.0188 87.9584C25.7922 86.8735 26.6472 85.8075 27.27 84.6397C27.3934 84.4091 27.3968 84.0451 27.1518 83.8691C27.1143 83.8414 27.0752 83.8146 27.0369 83.7877C26.1044 83.1884 24.0786 86.5695 23.717 87.0598C23.4065 87.4807 23.1232 88.0342 22.742 88.4069C22.7029 88.4369 22.4672 88.6414 22.5684 88.534C22.4774 88.6311 22.3753 88.6714 22.3089 88.8001C22.0248 89.3568 22.5131 90.0382 23.204 89.8637C24.0369 89.6529 24.5806 88.5743 25.0188 87.9584Z" fill="black" fill-opacity="0.07"/>
<path d="M34.394 88.6134C34.4969 88.3149 34.4654 88.0686 34.4101 87.7685C34.2868 87.1076 34.2936 86.6212 34.3157 85.954C34.3497 84.9568 34.1923 83.8577 33.5423 83.0373C33.2445 82.6622 32.4686 82.7467 32.5052 83.3042C32.5681 84.2683 32.7434 85.1597 32.6694 86.1333C32.6336 86.6078 32.5783 87.0666 32.6609 87.5403C32.7145 87.8506 32.9272 88.1475 32.9697 88.4428C33.0727 89.1709 34.1285 89.3856 34.394 88.6134Z" fill="black" fill-opacity="0.07"/>
<path d="M29.6709 94.6248C29.8513 94.4069 29.8394 94.1234 29.5697 93.9678C28.889 93.5738 27.9498 93.9173 27.2019 94.02C26.7654 94.0808 26.3264 94.1226 25.8899 94.181C25.6449 94.2142 25.4016 94.2387 25.1668 94.3129C24.9362 94.3855 24.7184 94.3776 24.9651 94.4171C24.8996 94.4219 24.8341 94.4329 24.7771 94.4558C24.7609 94.4621 24.7447 94.4684 24.7286 94.4755C24.5729 94.5379 24.4716 94.7795 24.5346 94.9256C24.8358 95.6197 25.9444 95.4112 26.5629 95.3504C27.469 95.262 29.0822 95.3394 29.6709 94.6248Z" fill="black" fill-opacity="0.07"/>
<path d="M16.5267 73.0851C17.7093 72.2741 16.5956 70.6799 16.0434 69.8406C15.8724 69.5808 15.6316 69.0873 15.3627 68.8781C16.1047 69.1442 16.7947 69.4474 17.5255 69.7443C17.6889 69.8982 17.8948 69.944 18.1253 69.8414C18.1568 69.8272 18.1883 69.813 18.2206 69.7988C18.3729 69.7308 18.5048 69.5224 18.4852 69.3645C18.31 67.955 13.6262 66.2298 13.3497 68.1943C13.2485 68.912 15.7856 71.6267 15.4342 71.8817C15.1262 72.1052 14.0032 71.4474 13.7556 71.2713C13.1379 70.8339 12.7848 70.1691 12.3134 69.61C11.9314 69.156 11.2508 69.325 11.1776 69.9022C10.9156 71.9622 14.5162 74.4629 16.5267 73.0851Z" fill="black" fill-opacity="0.07"/>
<path d="M18.6221 66.7985C19.4227 66.4163 20.1902 65.6465 20.7721 65.018C21.1184 64.6184 21.1746 64.0562 20.7526 63.6749C20.3697 63.3298 19.6729 63.3077 19.3053 63.6938C19.0135 63.9994 18.7259 64.3081 18.4154 64.5979C18.1074 64.8853 17.7475 65.1356 17.4727 65.4499C16.6525 66.1408 17.722 67.2273 18.6221 66.7985Z" fill="black" fill-opacity="0.07"/>
<path d="M11.787 64.141C11.4067 63.7248 10.8665 63.4682 10.4011 63.1429C9.92802 62.8113 9.48644 62.4433 9.06358 62.058C8.43994 61.4903 7.47768 62.4046 8.11664 62.9613C8.95979 63.6964 10.1211 64.7497 11.3012 64.9369C11.8168 65.0182 12.1231 64.5089 11.787 64.141Z" fill="black" fill-opacity="0.07"/>
<path d="M9.73304 66.3721C9.20128 65.9473 8.67208 65.5233 8.1199 65.1214C7.61963 64.7574 7.14488 64.3278 6.55441 64.1044C6.15113 63.952 5.70104 64.4992 5.97415 64.8197C6.36893 65.2832 6.94834 65.5888 7.46393 65.9331C8.03398 66.3129 8.62019 66.6666 9.2081 67.0219C9.625 67.273 10.1142 66.6761 9.73304 66.3721Z" fill="black" fill-opacity="0.07"/>
<path d="M5.44688 60.8016C6.55974 60.2884 7.2506 59.3243 6.71033 58.0886C6.59547 57.3093 6.11732 56.5773 5.19759 56.1493C5.1074 56.1075 5.01127 56.0814 4.91768 56.0514C4.836 55.9646 4.73985 55.884 4.61648 55.8201C3.72228 55.3534 2.72258 55.9693 1.96875 56.5947C1.34596 57.0013 0.850784 57.5572 0.615109 58.1652C0.59554 58.2126 0.581077 58.2599 0.565762 58.3073C0.54194 58.3839 0.519819 58.4605 0.505355 58.5379C0.495997 58.5892 0.490896 58.6405 0.485791 58.6918C0.429637 59.1822 0.548744 59.6859 0.935864 60.1605C1.22854 60.519 1.62248 60.7693 2.06064 60.9422C2.73023 61.2675 3.51213 61.3923 4.26255 61.2667C4.71603 61.1909 5.1091 61.0243 5.44688 60.8016ZM4.61904 57.7467L4.62159 57.7443C4.6888 57.7941 4.75432 57.8509 4.81643 57.9228C5.12017 58.2749 5.14568 58.6271 5.00785 58.9319C4.54331 59.5841 3.7461 59.8936 2.77873 59.4364C1.75435 58.9524 2.56347 58.1494 3.23731 57.7917C3.49001 57.6575 3.7461 57.5722 3.99284 57.5611C4.09408 57.7862 4.34338 57.9354 4.61904 57.7467Z" fill="black" fill-opacity="0.07"/>
<path d="M7.03865 76.1144C7.05907 75.9872 7.64443 75.5577 7.77205 75.4274C8.07834 75.1171 8.37441 74.8021 8.65603 74.472C9.12058 73.9264 9.68468 73.3911 9.75615 72.6781C9.79528 72.2888 9.36987 72.1056 9.02699 72.1885C9.02869 72.1814 9.0304 72.1751 9.03295 72.168C8.13534 72.487 7.5117 73.4471 6.87699 74.093C6.28568 74.6947 5.34382 75.2285 5.4825 76.1223C5.59481 76.8471 6.92209 76.8274 7.03865 76.1144Z" fill="black" fill-opacity="0.07"/>
<path d="M9.91253 77.8835C10.3533 77.4777 10.7497 77.0063 11.1488 76.5649C11.5691 76.1006 12.0353 75.6245 12.3093 75.0694C12.5662 74.5491 12.0013 73.9253 11.4125 74.2569C10.8178 74.5917 10.3354 75.0915 9.86319 75.5598C9.45309 75.9672 8.80817 76.4362 8.56059 76.9431C8.17687 77.7327 9.19104 78.5492 9.91253 77.8835Z" fill="black" fill-opacity="0.07"/>
<path d="M5.94987 83.5858C7.30862 82.4867 7.21078 80.1052 5.76185 79.1032C5.68272 79.048 5.60189 79.0266 5.52362 79.0203C4.71535 78.0886 2.91502 78.0531 1.80982 78.684C0.113295 79.6536 -0.709434 81.7847 0.767578 83.262C2.03444 84.5278 4.52476 84.7394 5.94987 83.5858ZM2.64106 82.6375C1.37335 82.1629 1.39377 81.0141 2.28542 80.1858C2.63681 79.8597 3.14219 79.5817 3.65694 79.6062C4.06362 79.6251 4.34183 79.8115 4.59112 80.046C4.59878 80.1747 4.66769 80.3018 4.79276 80.3642C4.86253 80.399 4.93316 80.4337 5.00292 80.4684C5.12118 80.8925 5.27604 81.3133 5.21052 81.7531C5.05057 82.8412 3.53952 82.9738 2.64106 82.6375Z" fill="black" fill-opacity="0.07"/>
</svg>
