<svg width="73" height="79" viewBox="0 0 73 79" fill="none" xmlns="http://www.w3.org/2000/svg">
<path d="M26.0355 77.4038C26.7112 76.0161 27.267 74.5905 27.8024 73.1526C28.1745 72.153 28.7223 71.1139 28.875 70.0534C29.3323 69.3703 29.8438 68.716 30.4316 68.1037C32.5839 65.8599 35.4403 64.3132 37.8661 62.3412C42.4363 58.6257 46.645 54.2229 50.2553 49.6956C55.9033 42.6114 59.962 32.5096 54.3877 24.3047C49.4331 17.012 37.4417 12.5861 28.6326 15.6993C18.9312 19.1281 14.2439 28.4982 13.1739 37.5263C12.532 42.9419 12.6563 48.6095 14.275 53.8677C15.2419 57.0073 16.5454 60.0669 17.753 63.1315C18.1641 64.1764 18.402 64.9666 18.4127 65.775C17.4395 66.679 16.9902 68.1367 16.4406 69.2705C15.8075 70.5742 14.7216 72.0632 14.6088 73.5044C14.4907 73.7953 14.5351 74.1447 14.7358 74.4199C15.2286 75.0973 16.0863 75.4607 16.9849 75.7409C17.7716 76.1199 18.5876 76.4611 19.4142 76.78C20.4389 77.4235 21.8125 77.8117 22.8398 78.0671C22.9526 78.0951 23.0574 78.0993 23.1595 78.0927C23.488 78.1825 23.8281 78.2542 24.1726 78.3168C24.5669 78.3885 24.8865 78.3127 25.1316 78.1512C25.5258 78.0374 25.849 77.7878 26.0355 77.4038ZM20.4966 64.9468C20.3705 64.5736 20.1832 64.1245 19.9505 63.5048C19.4134 62.0759 18.838 60.6454 18.2724 59.2091C19.0182 59.4324 19.7774 59.6516 20.5481 59.7085C20.7976 59.7266 20.9868 59.3937 20.7408 59.2552C19.8653 58.7625 18.8415 58.507 17.8773 58.2005C17.6579 57.6327 17.4413 57.0641 17.2317 56.4939C17.6846 56.5878 18.1401 56.6711 18.6009 56.7147C18.7909 56.7329 18.854 56.4881 18.6808 56.4181C18.1401 56.2005 17.5754 56.0432 17.008 55.8924C16.7141 55.0675 16.4362 54.2385 16.1876 53.403C17.5256 53.6897 18.8637 54.0358 20.2169 54.0803C20.4025 54.0861 20.5348 53.8595 20.3581 53.7474C19.0902 52.9415 17.4724 52.6341 15.9194 52.4265C15.7081 51.6412 15.5154 50.8526 15.368 50.0557C16.0251 50.1678 16.6777 50.2963 17.3223 50.4661C18.2271 50.7034 19.0973 51.0264 20.0473 51.0396C20.2791 51.0429 20.383 50.8048 20.2081 50.6606C18.973 49.6355 16.9458 49.3347 15.2082 49.1608C15.1993 49.0982 15.1842 49.0372 15.1753 48.9746C15.075 48.261 14.9968 47.5325 14.9329 46.795C15.7489 46.9879 16.5773 47.1955 17.404 47.1815C17.618 47.1782 17.6704 46.8873 17.5123 46.7843C16.7567 46.2924 15.7915 46.0839 14.8663 45.9092C14.8255 45.2895 14.7926 44.6657 14.7749 44.0362C15.3662 44.1367 15.954 44.2529 16.5347 44.407C17.2779 44.6047 17.9669 44.8314 18.7465 44.8454C18.9792 44.8495 19.0644 44.6188 18.9037 44.4754C17.8737 43.5574 16.2009 43.2657 14.7509 43.0795C14.7473 42.356 14.7589 41.63 14.7926 40.9007C16.16 41.3539 17.5239 41.8912 18.9392 42.1087C19.2393 42.1549 19.4009 41.7585 19.155 41.6003C17.9074 40.7977 16.3376 40.4137 14.845 40.0709C14.885 39.4694 14.9374 38.8678 15.0048 38.2671C16.0162 38.4171 16.9893 38.8522 18.0229 38.6956C18.2404 38.6626 18.3763 38.4072 18.22 38.2407C17.6162 37.598 16.7833 37.4439 15.891 37.3409C15.7081 37.3203 15.4293 37.2816 15.1425 37.2708C15.2188 36.7311 15.3032 36.193 15.4017 35.6574C15.3946 35.6541 15.3751 35.6467 15.3751 35.6467L15.471 35.2108C16.1955 35.3838 16.9192 35.5626 17.634 35.7637C18.7368 36.0727 19.8005 36.4963 20.9681 36.502C21.3108 36.5037 21.4689 36.1551 21.2078 35.9376C19.8573 34.8152 17.6349 34.4065 15.6876 34.2244L15.7596 33.8948C15.8963 33.3303 16.0508 32.7708 16.2177 32.2162C17.143 32.344 18.0673 32.6826 18.9472 32.9298C19.8103 33.1729 20.7736 33.6187 21.6722 33.3237C21.8427 33.2677 21.8551 33.0798 21.7735 32.9595C21.1883 32.1017 19.7357 31.9212 18.7554 31.6864C18.0007 31.5051 17.2513 31.3559 16.4868 31.3741H16.485C16.6679 30.831 16.8641 30.2938 17.0781 29.7647C18.3496 30.0647 19.6131 30.4116 20.8625 30.7766C21.8667 31.07 22.9082 31.6106 23.9631 31.3395C24.1762 31.2842 24.1806 31.0329 24.0856 30.8961C23.4268 29.9427 21.8081 29.7326 20.7017 29.4664C20.343 29.3807 19.9852 29.3057 19.6265 29.2373C19.3894 29.1582 19.1479 29.0923 18.9179 29.0322C18.4535 28.911 17.9829 28.8278 17.5079 28.7726C17.7618 28.2139 18.0291 27.661 18.3239 27.1237C19.0333 27.2168 19.741 27.3256 20.4354 27.4665C21.6039 27.7022 22.7803 28.2098 23.9799 28.2592C24.2117 28.2683 24.2996 28.0285 24.1371 27.8892C23.2385 27.1196 21.8933 26.8559 20.7257 26.635C20.0535 26.5081 19.3912 26.4348 18.7261 26.4051C18.9605 26.0104 19.2029 25.6198 19.4622 25.24C20.7603 25.5531 22.1126 25.7154 23.417 25.9841C25.1458 26.34 26.9145 27.0841 28.6779 27.2119C28.9381 27.2308 29.1174 26.8971 28.8742 26.7496C27.4952 25.9091 25.6714 25.6338 24.0794 25.2952C22.7164 25.0051 21.2807 24.701 19.8609 24.6557C20.2214 24.1605 20.6005 23.6768 21.0063 23.2104C22.6436 23.3521 24.28 23.5383 25.8978 23.7954C27.5751 24.0624 29.3971 24.7439 31.0984 24.6821C31.1011 24.6821 31.1028 24.6829 31.1055 24.6829C31.1153 24.6837 31.1233 24.6813 31.1321 24.6821C31.149 24.6813 31.1659 24.6829 31.1819 24.6821L31.181 24.6804C31.4234 24.6516 31.5397 24.3261 31.3177 24.1835C29.9503 23.3101 27.8974 23.1453 26.2921 22.9063C24.7418 22.6756 23.1986 22.5553 21.6403 22.5149C21.9635 22.1762 22.2955 21.8433 22.6463 21.5236C22.8363 21.3497 23.0325 21.1816 23.2296 21.0151C23.5946 21.0687 23.9586 21.1239 24.3227 21.1816C24.8865 21.2706 25.4486 21.3645 26.0115 21.4568C27.4189 21.6867 28.8235 21.9175 30.2238 22.1828C32.5501 22.6228 35.0603 23.5078 37.4399 23.418C37.7276 23.4073 37.8377 22.9928 37.5935 22.8544C35.3213 21.5705 32.108 21.3085 29.5294 20.8816C27.9836 20.6262 26.435 20.3988 24.875 20.229C24.6929 20.2092 24.5074 20.182 24.3209 20.154C25.207 19.5014 26.1465 18.9213 27.1294 18.4244C30.7539 19.419 34.9608 20.4062 38.6058 21.2945C38.8029 21.3423 39.008 21.0926 38.7967 20.9731C35.7751 19.2665 31.4172 18.8661 27.9898 18.0189C28.923 17.6045 29.8917 17.2707 30.8853 17.0186C33.7764 17.7256 36.576 18.6905 39.4626 19.3992C39.7023 19.4577 39.8311 19.1685 39.6038 19.0638C37.2854 17.9975 34.7282 17.3218 32.1959 16.7335C33.6307 16.4854 35.1118 16.417 36.6186 16.5612C42.1157 17.0861 48.435 20.1862 51.8047 24.261C59.107 33.0938 52.2229 44.4424 45.7366 51.6197C41.7526 56.0283 37.5065 60.0562 32.5848 63.5583C30.6891 64.9073 29.216 66.3444 27.9898 67.9035C26.9367 67.433 25.8792 66.9715 24.8199 66.5117C24.9664 66.3337 25.0099 66.1005 24.8812 65.8689C25.6776 64.6831 26.3498 63.5435 27.0832 62.4484C28.7161 60.4789 30.6535 58.7699 32.6283 56.9669C35.0159 55.2966 37.5713 53.8273 39.8462 52.0194C43.4938 49.1196 47.2053 44.6666 46.0856 39.9432C46.0545 39.8122 45.9835 39.7149 45.8974 39.6383C45.8974 39.6342 45.8983 39.6292 45.8983 39.6259C45.9089 37.9078 43.4369 36.8044 41.9692 37.5856C41.9701 37.4661 41.9603 37.35 41.939 37.2428C41.8165 36.6256 41.2544 36.2293 40.6418 36.0406C39.8196 35.7868 38.6866 35.8898 37.9079 36.3751C37.6646 35.6813 36.9729 34.9825 36.4348 34.7534C35.6002 34.3974 34.6971 34.5351 33.9637 34.9495C33.9344 34.7641 33.8838 34.5878 33.7897 34.4378C33.6805 34.264 33.5411 34.1148 33.391 33.9764C33.0669 33.5627 32.6256 33.2496 32.1328 33.1721C31.9339 33.1408 31.735 33.1391 31.5379 33.154C31.1996 33.1029 30.8578 33.0872 30.5337 33.112C30.0373 33.1499 29.5525 33.355 29.1086 33.6484C24.0883 35.3418 21.6429 41.5896 21.7228 46.1317C21.801 50.5757 22.5193 54.8203 22.5442 59.13C22.3861 60.0175 22.2227 60.8868 22.1792 61.8155C22.1339 62.7772 22.1242 63.7438 22.0274 64.7021C22.007 64.9081 21.9741 65.1092 21.9395 65.3102C21.4671 65.1471 20.9921 65.0152 20.4966 64.9468ZM24.2676 63.4298C24.2641 62.9436 24.2525 62.4731 24.2534 62.0413C24.2543 61.326 24.2028 60.6643 24.1291 59.9952C24.4967 57.0361 24.3191 54.0119 23.9959 50.9819C23.6381 47.6257 23.1364 44.421 24.4052 41.1677C25.3349 38.7862 27.0788 37.1868 28.7925 35.4291C28.844 35.4085 28.8919 35.3789 28.9354 35.341C28.9345 35.3459 28.9319 35.35 28.931 35.355C28.8013 35.9796 28.97 36.624 29.3448 37.1398C29.4522 37.3582 29.604 37.5634 29.8198 37.7471C30.5106 38.333 31.4376 38.4303 32.2642 38.0356C32.2989 38.0191 32.3317 37.9927 32.3655 37.9696C32.3663 38.3759 32.5164 38.7607 32.8218 39.0508C33.1113 39.4381 33.5437 39.7149 34.1475 39.7627C34.8889 39.8212 35.8745 39.4875 36.6026 38.9412C36.5653 39.2667 36.5795 39.5831 36.6816 39.8435C36.9391 40.4986 37.8413 40.9535 38.5214 41.1298C39.3348 41.3416 40.1738 41.1191 40.8611 40.6683C41.0014 41.2419 41.3929 41.7511 41.9949 41.9818C42.7222 42.2612 43.6856 42.0989 44.4527 41.6835C42.6511 47.8844 37.8066 51.2827 32.3788 55.3856C30.1599 57.0625 27.1836 59.3162 25.4512 61.9301C25.0286 62.4129 24.637 62.9148 24.2676 63.4298ZM19.6638 73.7838C19.004 73.558 18.2955 73.2622 17.5771 73.0611C17.6792 72.8815 17.776 72.6969 17.8684 72.5106C18.4002 72.7125 18.9268 72.9268 19.4542 73.1509C20.2542 73.4912 21.0054 73.8761 21.8986 73.8588C22.1215 73.8547 22.2503 73.5901 22.1677 73.4187C21.579 72.2049 19.9452 71.6182 18.442 71.2622C18.5086 71.1106 18.5752 70.959 18.6418 70.8098C19.1159 71.02 19.5936 71.226 20.0686 71.4361C20.739 71.7328 21.5044 72.2544 22.2609 71.9783C22.3639 71.9404 22.4438 71.8209 22.4207 71.7163C22.2449 70.9277 21.2505 70.622 20.5392 70.3212C20.0722 70.1234 19.6034 69.9487 19.1266 69.7971C19.1976 69.657 19.2686 69.5169 19.3406 69.3744C19.781 69.6372 20.2986 69.8325 20.7239 70.027C21.5035 70.3838 22.5717 71.1032 23.4641 70.8922C23.6843 70.8403 23.8556 70.6417 23.75 70.4242C23.3779 69.6562 22.2716 69.3884 21.4929 69.0678C21.0054 68.8676 20.3927 68.5619 19.7898 68.4119C19.939 68.0633 20.0749 67.7115 20.1619 67.3571C20.7 67.6208 21.2611 67.8293 21.6083 67.9867C21.6314 67.9974 21.6554 68.0073 21.6784 68.018C21.682 68.0394 21.682 68.06 21.6864 68.0823C21.785 68.6138 22.363 68.7498 22.7803 68.5075C23.8512 68.9813 24.9256 69.4469 25.9991 69.9149C25.4779 70.94 25.2026 72.1374 24.8172 73.1542C24.5304 73.9115 24.2321 74.6655 23.9018 75.4071C22.5078 74.8278 21.0995 74.2757 19.6638 73.7838Z" fill="black" fill-opacity="0.07"/>
<path d="M58.897 25.9836C62.2604 24.2778 66.0234 23.1291 69.2057 21.1572C69.4774 20.9891 69.2634 20.5853 68.9624 20.6282C65.1239 21.1679 61.6033 23.2469 58.31 25.0631C57.7524 25.3705 58.3225 26.2744 58.897 25.9836Z" fill="black" fill-opacity="0.07"/>
<path d="M61.3165 32.6181C61.3875 32.651 61.4586 32.684 61.5296 32.7169C61.4523 32.8933 61.3751 33.0705 61.2969 33.2468C61.9309 32.9295 63 32.9172 63.7121 32.7614C64.8087 32.5225 65.9061 32.295 67.0116 32.0915C68.9038 31.7429 70.827 31.532 72.6774 31.0145C73.196 30.8695 73.045 30.0907 72.5318 30.0594C69.4596 29.8732 66.2507 30.6412 63.3205 31.4405C62.8055 31.5806 59.7173 32.2588 61.0013 33.3061C61.1327 33.4133 61.3511 33.3894 61.4825 33.2987C61.5198 33.2723 61.558 33.246 61.5953 33.2196C61.8732 33.0251 61.6761 32.5464 61.3165 32.6181Z" fill="black" fill-opacity="0.07"/>
<path d="M60.0035 40.4058C61.5707 40.0218 63.1654 39.7548 64.7787 39.6073C66.2189 39.4763 67.8012 39.6098 69.1606 39.1162C69.5531 38.9736 69.4812 38.4973 69.15 38.3449C66.4578 37.1039 62.3041 38.3869 59.6617 39.2554C58.9797 39.4796 59.2887 40.5805 60.0035 40.4058Z" fill="black" fill-opacity="0.07"/>
<path d="M56.2923 47.2032C59.0005 47.1554 61.9901 47.1612 64.558 46.2704C64.8892 46.155 64.8093 45.6689 64.4612 45.6408C61.7104 45.4167 58.8575 45.8617 56.097 45.9103C55.1922 45.926 55.3982 47.2189 56.2923 47.2032Z" fill="black" fill-opacity="0.07"/>
<path d="M56.9773 17.6057C58.549 15.9922 61.0644 14.2939 61.9666 12.247C62.1397 11.8539 61.6878 11.4749 61.2793 11.6257C59.0178 12.4587 57.2162 15.0718 55.7449 16.766C55.1189 17.487 56.3283 18.2715 56.9773 17.6057Z" fill="black" fill-opacity="0.07"/>
<path d="M49.1825 11.4585C49.7144 9.7964 50.2853 8.14586 50.9068 6.51098C51.4715 5.02607 52.1419 3.56835 52.2787 1.98703C52.3089 1.63847 51.8454 1.47449 51.611 1.74312C49.4542 4.20945 48.6746 7.93326 47.7378 10.9336C47.4635 11.8136 48.8966 12.3509 49.1825 11.4585Z" fill="black" fill-opacity="0.07"/>
<path d="M38.8766 10.8844C38.9725 9.08224 38.4389 7.24959 38.0828 5.48615C37.7144 3.65927 37.273 1.9494 36.5778 0.208219C36.4224 -0.180725 35.8701 0.031051 35.879 0.387033C35.9252 2.31939 36.2235 4.13721 36.6231 6.03496C36.9721 7.69209 37.1869 9.46212 37.9425 11.008C38.1334 11.3961 38.8509 11.3574 38.8766 10.8844Z" fill="black" fill-opacity="0.07"/>
<path d="M28.0947 12.2197C26.5266 8.87662 25.6236 4.96657 23.5174 1.88304C23.2759 1.52953 22.776 1.84019 22.7893 2.17145C22.9412 5.81039 25.2471 9.49052 27.022 12.6392C27.3648 13.2465 28.3974 12.8649 28.0947 12.2197Z" fill="black" fill-opacity="0.07"/>
<path d="M19.0727 16.9522C17.1015 14.4241 15.2955 11.7385 12.7915 9.6356C12.5953 9.47079 12.281 9.71965 12.3893 9.9306C13.8464 12.7612 16.1177 15.1385 18.1679 17.6147C18.6216 18.1619 19.506 17.5076 19.0727 16.9522Z" fill="black" fill-opacity="0.07"/>
<path d="M11.7242 23.6365C11.7872 23.7667 11.8138 23.8442 11.9479 23.915C12.0989 23.9958 12.2569 23.8804 12.2081 23.7247C12.1646 23.5887 12.0864 23.5426 11.9675 23.4585C11.8423 23.3695 11.6602 23.503 11.7242 23.6365Z" fill="black" fill-opacity="0.07"/>
<path d="M12.1718 23.7141C10.467 21.5222 8.257 19.5799 5.85606 18.0538C5.51954 17.8396 5.09511 18.2285 5.35261 18.5375C7.13289 20.6751 9.35003 22.6132 11.8051 24.066C12.0573 24.2143 12.3521 23.9457 12.1718 23.7141Z" fill="black" fill-opacity="0.07"/>
<path d="M8.99988 32.5813C6.58208 30.5616 3.85617 28.5798 0.651662 27.8159C0.171297 27.7014 -0.270003 28.2634 0.201482 28.5749C2.83505 30.3185 5.69594 31.665 8.21231 33.5759C8.88268 34.0844 9.62498 33.1046 8.99988 32.5813Z" fill="black" fill-opacity="0.07"/>
</svg>
