<svg width="30" height="30" viewBox="0 0 30 30" fill="none" xmlns="http://www.w3.org/2000/svg">
<path opacity="0.1" fill-rule="evenodd" clip-rule="evenodd" d="M-0.000244141 14.9999C-0.000244141 6.71567 6.71548 -6.10352e-05 14.9998 -6.10352e-05C23.284 -6.10352e-05 29.9998 6.71567 29.9998 14.9999C29.9998 23.2842 23.284 29.9999 14.9998 29.9999C6.71548 29.9999 -0.000244141 23.2842 -0.000244141 14.9999Z" fill="#1A82FF"/>
<path fill-rule="evenodd" clip-rule="evenodd" d="M21.2508 9.84327C21.9392 10.0322 22.4814 10.5888 22.6654 11.2957C22.9998 12.5768 22.9998 15.2499 22.9998 15.2499C22.9998 15.2499 22.9998 17.9229 22.6654 19.2042C22.4814 19.9111 21.9392 20.4677 21.2508 20.6567C20.0031 20.9999 14.9998 20.9999 14.9998 20.9999C14.9998 20.9999 9.99639 20.9999 8.74866 20.6567C8.06021 20.4677 7.51803 19.9111 7.33403 19.2042C6.99976 17.9229 6.99976 15.2499 6.99976 15.2499C6.99976 15.2499 6.99976 12.5768 7.33403 11.2957C7.51803 10.5888 8.06021 10.0322 8.74866 9.84327C9.99639 9.49994 14.9998 9.49994 14.9998 9.49994C14.9998 9.49994 20.0031 9.49994 21.2508 9.84327ZM13.4998 12.9999V17.9999L17.4998 15.5L13.4998 12.9999Z" fill="#1A82FF"/>
</svg>
