<svg width="30" height="30" viewBox="0 0 30 30" fill="none" xmlns="http://www.w3.org/2000/svg">
<path opacity="0.1" fill-rule="evenodd" clip-rule="evenodd" d="M-0.000244141 14.9999C-0.000244141 6.71567 6.71548 -6.10352e-05 14.9998 -6.10352e-05C23.284 -6.10352e-05 29.9998 6.71567 29.9998 14.9999C29.9998 23.2842 23.284 29.9999 14.9998 29.9999C6.71548 29.9999 -0.000244141 23.2842 -0.000244141 14.9999Z" fill="#1A82FF"/>
<path fill-rule="evenodd" clip-rule="evenodd" d="M14.5493 12.1921L14.5808 12.7111L14.0562 12.6475C12.1466 12.4039 10.4784 11.5777 9.06193 10.1901L8.36945 9.50156L8.19108 10.01C7.81336 11.1434 8.05468 12.3404 8.8416 13.1454C9.26128 13.5903 9.16685 13.6538 8.44289 13.389C8.19108 13.3043 7.97074 13.2407 7.94976 13.2725C7.87632 13.3467 8.12813 14.3106 8.32748 14.6919C8.60028 15.2215 9.15636 15.7406 9.76491 16.0477L10.279 16.2914L9.67048 16.302C9.08292 16.302 9.06193 16.3126 9.12489 16.535C9.33473 17.2235 10.1636 17.9544 11.0869 18.2722L11.7374 18.4946L11.1709 18.8336C10.3315 19.3208 9.34522 19.5962 8.35896 19.6174C7.88681 19.628 7.4986 19.6704 7.4986 19.7022C7.4986 19.8081 8.77864 20.4013 9.52359 20.6343C11.7584 21.3228 14.4129 21.0262 16.4065 19.8505C17.8229 19.0137 19.2394 17.3506 19.9004 15.7406C20.2571 14.8826 20.6138 13.3149 20.6138 12.5628C20.6138 12.0755 20.6453 12.012 21.2329 11.4294C21.5791 11.0904 21.9044 10.7197 21.9673 10.6138C22.0722 10.4125 22.0618 10.4125 21.5267 10.5926C20.6348 10.9104 20.5089 10.868 20.9496 10.3913C21.2748 10.0524 21.6631 9.43801 21.6631 9.25794C21.6631 9.22616 21.5057 9.27912 21.3273 9.37445C21.1384 9.48038 20.7188 9.63927 20.404 9.7346L19.8374 9.91467L19.3233 9.56512C19.04 9.37445 18.6413 9.1626 18.4315 9.09905C17.8964 8.95075 17.078 8.97194 16.5953 9.14142C15.2838 9.61808 14.4549 10.8468 14.5493 12.1921Z" fill="#1A82FF"/>
</svg>
